<?xml version="1.0" standalone="no"?>
<!DOCTYPE svg PUBLIC "-//W3C//DTD SVG 20010904//EN"
 "http://www.w3.org/TR/2001/REC-SVG-20010904/DTD/svg10.dtd">
<svg version="1.0" xmlns="http://www.w3.org/2000/svg"
 width="722.000000pt" height="951.000000pt" viewBox="0 0 722.000000 951.000000"
 preserveAspectRatio="xMidYMid meet">

<g transform="translate(0.000000,951.000000) scale(0.100000,-0.100000)"
fill="#000000" stroke="none">
<path d="M3528 9496 c-143 -26 -303 -91 -411 -169 -44 -31 -52 -33 -90 -26
-85 16 -289 10 -373 -11 -363 -92 -707 -448 -893 -924 -41 -104 -79 -245 -103
-376 -18 -104 -18 -803 0 -950 25 -197 67 -361 122 -471 15 -31 31 -81 35
-110 22 -164 124 -485 214 -674 113 -236 227 -396 375 -523 144 -124 419 -323
430 -311 2 2 6 22 10 44 6 39 5 41 -48 78 -135 96 -296 260 -386 392 -111 163
-157 296 -188 543 l-18 143 -89 30 c-162 54 -212 96 -245 207 -52 174 -94 536
-76 657 9 59 50 105 93 105 44 0 123 -52 195 -129 100 -106 99 -103 88 -199
-19 -169 24 -347 108 -447 l25 -30 -7 45 c-17 108 -25 190 -26 254 0 38 -5 97
-12 131 -22 124 17 230 156 412 178 233 206 298 257 602 19 113 49 201 68 201
5 0 14 -15 20 -32 31 -92 171 -269 283 -354 82 -63 144 -89 325 -135 87 -22
219 -61 293 -88 74 -27 254 -86 400 -131 315 -98 466 -153 618 -225 191 -91
335 -205 416 -330 49 -75 169 -235 176 -235 7 0 35 260 52 482 l11 150 30 19
c122 74 228 -15 270 -226 12 -62 15 -66 20 -40 4 17 10 172 14 345 17 849 -91
1234 -455 1622 -294 313 -777 573 -1242 668 -133 27 -336 35 -442 16z"/>
<path d="M5472 6237 c-30 -16 -88 -41 -130 -56 l-77 -26 -7 -95 c-22 -301 -68
-446 -195 -613 -65 -87 -231 -248 -347 -337 l-97 -75 6 -40 c3 -21 8 -41 10
-43 6 -6 97 51 185 116 97 71 239 210 299 292 102 138 250 423 325 623 33 87
89 279 83 282 -1 1 -26 -12 -55 -28z"/>
<path d="M2722 4482 c-9 -22 -10 -23 -5 -3 4 20 2 23 -12 18 -9 -4 -21 -7 -26
-7 -6 0 -7 -5 -3 -12 4 -7 3 -8 -5 -4 -17 11 -84 -16 -68 -27 8 -5 3 -7 -13
-3 -29 6 -59 -7 -41 -18 6 -4 11 -2 11 4 0 6 5 8 12 4 8 -5 2 -12 -17 -20 -43
-18 -64 -18 -39 1 10 8 15 14 9 15 -18 0 -32 -15 -39 -42 -6 -26 -26 -40 -26
-18 0 6 4 10 8 10 5 0 9 7 9 15 0 8 -1 15 -2 15 -18 0 -65 -25 -65 -35 0 -8
-7 -21 -16 -29 -14 -15 -14 -16 0 -16 9 0 16 -3 16 -7 0 -5 -23 -8 -50 -9 -28
0 -50 3 -50 8 0 5 -9 4 -20 -2 -11 -6 -30 -9 -43 -8 -26 3 -197 -60 -197 -73
0 -5 12 -9 28 -8 23 0 24 1 7 8 -17 7 -15 9 15 15 19 4 54 16 77 27 48 22 69
24 78 8 4 -6 14 -8 24 -4 11 4 9 0 -6 -14 -12 -12 -29 -18 -37 -15 -22 8 -10
25 12 17 13 -4 14 -3 6 6 -15 16 -94 -7 -87 -26 3 -7 13 -13 22 -13 14 0 14 2
1 10 -12 8 -12 10 5 10 23 -1 60 -26 48 -32 -14 -8 -57 -2 -85 12 -25 12 -30
11 -48 -5 -11 -10 -20 -24 -20 -31 0 -19 -20 -28 -33 -15 -8 8 -6 11 6 11 9 0
17 5 17 10 0 15 -40 12 -41 -2 -1 -7 -2 -17 -4 -23 -1 -5 -3 -15 -3 -21 -1 -6
-13 -9 -25 -7 -13 3 -30 -2 -38 -9 -19 -19 -53 -20 -38 -1 11 12 10 14 -10 17
-5 0 -12 4 -15 7 -11 10 29 7 42 -4 10 -8 16 -7 21 2 4 6 12 11 17 10 5 -1 18
-1 28 0 15 1 17 4 9 12 -9 9 -8 15 3 27 18 17 13 25 -10 16 -9 -3 -17 -16 -17
-28 -1 -16 -2 -17 -6 -4 -4 16 -8 16 -56 -3 -54 -21 -99 -46 -64 -35 15 5 16
3 6 -15 -7 -15 -7 -19 0 -15 6 4 24 0 41 -9 16 -8 30 -13 30 -9 0 4 6 2 13 -3
6 -6 26 -9 44 -8 21 2 34 -2 38 -13 11 -30 -43 -44 -65 -17 -7 8 -28 15 -48
15 -23 0 -44 8 -59 21 -17 17 -25 19 -36 10 -8 -6 -22 -9 -31 -5 -25 9 -19 -5
7 -17 20 -8 19 -9 -6 -4 -19 4 -26 2 -22 -5 3 -5 2 -10 -4 -10 -5 0 -11 -10
-13 -22 -2 -13 -11 -24 -22 -26 -15 -3 -17 0 -12 14 7 17 6 17 -13 0 -10 -9
-25 -16 -33 -15 -7 1 -26 -3 -42 -10 -16 -6 -37 -9 -48 -5 -27 8 -15 17 30 20
76 7 87 9 85 22 -2 7 7 12 21 12 32 0 41 16 19 30 -15 9 -15 10 6 4 14 -4 21
-2 18 3 -4 6 5 15 19 22 19 8 23 8 18 0 -4 -7 -2 -10 5 -8 7 3 12 8 11 13 -1
5 4 13 12 17 33 21 -13 5 -77 -27 -38 -19 -62 -32 -52 -29 11 3 16 1 11 -6 -3
-6 -15 -8 -26 -6 -23 7 -172 -65 -161 -77 4 -4 1 -7 -7 -6 -29 4 -41 0 -34
-12 4 -6 3 -8 -3 -5 -6 4 -32 -5 -57 -19 -56 -31 -61 -42 -6 -14 44 22 60 25
60 10 0 -5 -10 -11 -22 -11 -19 -1 -20 -2 -4 -6 10 -3 23 0 29 6 16 16 27 14
21 -4 -4 -8 -16 -15 -28 -16 -20 0 -20 -1 -2 -8 19 -7 19 -8 -2 -13 -14 -4
-22 -2 -22 7 0 7 -7 16 -16 19 -8 3 -12 2 -9 -4 3 -5 -8 -7 -27 -5 -24 3 -42
-3 -68 -22 -68 -52 -160 -136 -160 -147 1 -6 10 0 20 13 11 13 20 19 20 13 0
-6 -6 -17 -13 -24 -18 -20 -19 -38 -3 -38 8 0 17 9 21 19 4 14 11 18 23 14 15
-6 15 -5 2 11 -16 21 -23 49 -9 40 5 -3 7 -10 3 -15 -3 -6 2 -9 11 -7 25 4 27
-26 4 -51 -17 -18 -18 -25 -8 -43 11 -21 11 -22 -5 -9 -13 11 -20 11 -28 3
-21 -21 -25 -15 -30 45 -1 7 -7 14 -15 17 -10 4 -11 1 -3 -14 7 -13 7 -21 -2
-26 -6 -4 -8 -3 -4 4 3 6 2 13 -3 17 -6 3 -8 -5 -5 -19 2 -14 0 -27 -6 -31 -5
-3 -7 0 -4 8 3 8 1 18 -4 21 -6 3 -32 -22 -60 -56 -43 -52 -49 -64 -39 -80 7
-10 14 -13 16 -7 2 6 -2 15 -9 19 -8 5 -7 9 5 14 9 3 14 10 11 14 -5 9 30 9
39 0 3 -3 -2 -11 -12 -19 -14 -12 -16 -12 -8 0 5 9 4 12 -3 7 -6 -4 -9 -13 -6
-20 6 -16 -21 -40 -36 -31 -17 10 -11 -7 8 -22 13 -10 13 -13 2 -11 -10 2 -14
-4 -12 -17 2 -11 1 -17 -3 -14 -3 4 -17 -4 -31 -18 -32 -32 -26 -40 9 -12 24
18 26 18 20 2 -6 -16 -5 -16 10 -4 15 12 17 12 11 -3 -4 -10 -13 -15 -22 -11
-8 3 -21 0 -29 -6 -10 -9 -17 -9 -25 -1 -9 9 -6 19 14 39 30 33 41 60 27 69
-6 4 -5 12 3 22 9 12 6 11 -10 -2 -23 -20 -30 -32 -11 -20 14 8 2 -36 -13 -51
-7 -7 -8 -2 -3 15 8 24 7 24 -17 -5 -26 -31 -79 -109 -92 -135 -5 -8 3 -2 16
14 17 20 27 25 32 18 4 -7 2 -12 -5 -12 -10 0 -10 -3 -1 -12 18 -18 34 9 21
33 -13 24 -11 42 3 33 7 -5 8 -2 3 7 -5 8 -4 11 1 6 10 -9 14 -98 3 -92 -4 3
-9 -8 -11 -25 -2 -16 -2 -27 2 -25 20 12 28 -15 23 -73 -7 -79 -23 -81 -23 -2
0 45 -4 62 -15 66 -8 4 -12 10 -9 15 3 5 0 9 -5 9 -6 0 -11 -9 -11 -20 0 -12
-7 -20 -16 -20 -11 0 -14 5 -9 18 5 14 4 15 -6 5 -10 -10 -10 -16 -2 -24 13
-13 6 -42 -8 -33 -5 3 -12 -8 -15 -24 -3 -16 -12 -29 -20 -29 -17 0 -18 9 -3
24 7 7 8 17 1 29 -9 16 -11 15 -22 -6 -10 -18 -9 -21 1 -15 9 6 10 3 4 -11 -4
-10 -7 -29 -6 -41 0 -16 -4 -21 -14 -17 -8 4 -15 10 -15 16 0 5 4 7 8 4 4 -2
8 4 8 15 0 10 -1 19 -3 19 -3 0 -93 -162 -93 -169 0 -3 5 1 11 9 8 12 9 11 7
-5 -2 -13 2 -19 12 -17 11 2 10 -2 -4 -12 -10 -9 -15 -20 -10 -27 4 -8 3 -10
-4 -5 -7 4 -12 2 -12 -4 0 -6 7 -13 15 -16 16 -6 11 -24 -6 -24 -6 0 -8 4 -4
9 3 5 1 12 -5 16 -5 3 -10 -1 -10 -9 0 -9 -6 -16 -13 -16 -7 0 -17 -10 -22
-22 -6 -13 -17 -22 -25 -20 -12 3 -13 1 -2 -9 15 -16 16 -29 1 -29 -5 0 -7 5
-4 10 3 6 1 10 -4 10 -13 0 -14 -50 -1 -70 5 -8 12 -11 16 -7 4 3 1 13 -6 22
-7 8 -8 15 -2 15 12 0 24 -29 16 -41 -3 -5 0 -9 5 -9 13 0 15 -37 2 -44 -5 -3
-14 8 -20 25 -7 21 -15 29 -25 26 -10 -4 -13 -1 -9 9 3 7 1 14 -5 14 -5 0 -13
-7 -16 -16 -4 -11 1 -18 15 -21 14 -4 19 -12 16 -24 -3 -11 1 -23 9 -27 21
-12 26 -72 5 -73 -10 0 -11 -2 -3 -6 13 -5 17 -33 4 -33 -15 0 -32 24 -32 47
0 13 5 23 10 23 6 0 10 9 10 20 0 25 -20 27 -20 3 -1 -23 -30 -64 -30 -42 0
12 -2 12 -10 -1 -13 -20 -13 -33 0 -25 6 3 7 -1 4 -10 -5 -12 -14 -14 -33 -10
-23 5 -30 1 -40 -21 -6 -15 -10 -29 -7 -31 2 -2 7 5 11 16 3 12 11 19 16 15 6
-3 -3 -18 -19 -33 -23 -21 -55 -77 -57 -101 -1 -3 -8 -19 -18 -37 -20 -38 -15
-58 18 -61 28 -2 44 16 24 29 -11 6 -10 11 4 27 9 10 17 29 18 43 l1 24 7 -25
c5 -17 3 -31 -7 -43 -8 -9 -12 -20 -8 -24 4 -4 11 -1 17 7 7 11 8 6 3 -15 -9
-39 -13 -47 -25 -39 -5 3 -9 2 -7 -3 2 -8 -11 -52 -34 -113 -17 -45 -54 -97
-63 -88 -25 24 6 87 43 88 8 0 10 8 7 23 -4 15 1 32 14 49 19 24 20 27 4 39
-9 8 -14 9 -10 3 8 -14 -22 -56 -35 -48 -6 4 -8 -1 -4 -14 4 -11 2 -23 -4 -27
-13 -8 -13 35 0 55 7 11 10 11 10 2 0 -7 5 -10 10 -7 6 3 10 11 10 16 0 6 -5
7 -11 3 -9 -5 -10 2 -6 22 5 20 0 16 -14 -16 -12 -25 -22 -55 -22 -67 -1 -11
-6 -19 -11 -15 -5 3 -7 -2 -3 -11 3 -10 3 -17 -2 -17 -4 0 -18 -24 -29 -54
-20 -51 -20 -96 -1 -96 12 0 11 7 -1 31 -8 13 -7 19 0 19 6 0 8 5 5 10 -3 6
-1 10 5 10 6 0 8 4 5 10 -3 5 -1 18 5 27 9 16 10 15 5 -4 -4 -16 -2 -23 7 -23
10 0 11 -2 0 -8 -7 -5 -10 -17 -6 -28 4 -13 3 -15 -3 -6 -7 9 -10 -1 -11 -32
0 -26 4 -46 9 -46 5 0 4 -11 -2 -24 -9 -19 -8 -29 5 -47 18 -26 21 -59 7 -59
-13 0 -24 37 -15 51 5 8 3 9 -5 5 -8 -5 -14 0 -18 13 -3 11 -10 18 -16 14 -6
-4 -7 -1 -2 7 4 7 2 16 -5 20 -11 7 -10 13 2 32 9 14 13 30 9 37 -5 8 -20 -23
-40 -79 -25 -73 -29 -95 -20 -106 6 -8 9 -18 5 -21 -4 -4 -11 -2 -15 6 -6 10
-10 9 -15 -4 -9 -26 -7 -42 4 -25 8 12 10 11 10 -7 0 -12 6 -28 13 -35 21 -21
28 -48 11 -41 -7 3 -14 11 -14 18 0 6 -10 20 -22 31 -12 10 -18 14 -15 7 4 -6
3 -14 -3 -18 -16 -10 -12 -28 5 -21 18 7 20 -10 3 -17 -10 -4 -9 -8 2 -16 13
-10 13 -11 0 -12 -8 -1 -20 -1 -26 0 -6 1 -18 -25 -27 -56 -9 -32 -19 -68 -22
-80 -4 -13 -3 -23 2 -23 5 0 9 8 10 18 1 16 16 65 34 107 8 17 8 16 3 -4 -4
-16 -3 -21 5 -17 18 11 13 -16 -5 -29 -12 -8 -14 -18 -9 -35 6 -17 9 -20 16
-9 5 9 7 -6 5 -38 -1 -31 -9 -60 -19 -71 -9 -10 -17 -32 -16 -48 0 -16 3 -24
5 -17 3 7 12 9 20 6 18 -7 19 -63 1 -63 -17 0 -42 72 -34 100 4 16 2 19 -7 11
-7 -6 -16 -7 -21 -3 -4 4 -4 -3 -1 -15 4 -12 2 -24 -4 -28 -6 -3 -8 -11 -5
-16 4 -5 1 -9 -5 -9 -7 0 -9 14 -6 38 5 33 5 34 -4 8 -5 -16 -7 -43 -4 -60 5
-25 3 -28 -6 -16 -9 12 -11 10 -7 -12 2 -15 1 -25 -3 -23 -15 9 -40 -208 -36
-305 2 -52 5 -102 6 -110 5 -34 24 -90 31 -90 7 0 6 14 -4 40 -8 23 -5 50 7
50 6 0 4 6 -6 13 -18 15 -29 89 -17 127 7 23 7 23 8 -7 1 -18 6 -33 12 -33 6
0 8 17 5 48 l-5 47 14 -40 c8 -22 18 -48 21 -58 4 -12 13 -17 25 -14 22 6 32
-16 16 -33 -9 -10 -9 -11 3 -5 12 6 13 5 3 -6 -13 -13 -19 -108 -7 -96 4 4 15
-3 25 -15 26 -29 25 -83 -1 -101 -12 -8 -18 -21 -15 -29 10 -25 -22 -17 -34 9
-7 16 -7 23 0 23 6 0 7 5 4 10 -4 6 -10 8 -15 5 -4 -3 -10 5 -14 18 -8 31 -8
34 9 34 14 0 31 -49 26 -77 -2 -11 3 -10 20 5 13 11 26 21 29 23 2 2 -1 6 -7
10 -6 4 -14 21 -17 37 -2 17 -5 32 -5 35 -1 3 -5 -1 -10 -9 -19 -30 -29 0 -24
68 4 53 2 74 -10 91 l-16 23 -7 -27 c-4 -16 -1 -32 6 -42 10 -11 10 -18 2 -26
-6 -6 -8 -17 -5 -26 5 -11 3 -13 -7 -7 -10 6 -12 4 -7 -9 4 -10 7 -20 7 -22 0
-3 5 -2 10 1 15 9 12 -8 -5 -32 -14 -21 -13 -27 14 -81 33 -65 57 -84 69 -52
7 18 8 18 28 -5 18 -20 19 -25 6 -30 -8 -3 -17 -3 -20 0 -3 3 0 5 7 5 7 0 9 5
6 10 -4 7 -12 7 -24 0 -10 -5 -22 -6 -26 -2 -4 4 -3 -2 3 -13 14 -28 65 -75
56 -52 -3 10 -1 17 5 17 6 0 11 -9 11 -19 0 -11 5 -23 10 -26 6 -3 10 -12 10
-18 0 -7 -4 -6 -10 3 -5 8 -11 12 -15 9 -3 -3 5 -14 17 -25 12 -10 18 -13 14
-7 -4 8 -2 13 4 13 7 0 10 6 7 14 -3 7 -1 18 5 24 7 7 7 16 -1 29 -9 16 -10
16 -11 -7 -1 -23 -1 -24 -12 -6 -8 15 -8 21 0 24 7 2 12 11 13 20 0 12 3 10 9
-5 12 -31 30 -29 30 2 0 14 -5 25 -12 25 -6 0 -8 3 -5 6 4 4 13 2 20 -4 8 -7
17 -9 20 -5 4 3 7 1 7 -5 0 -7 -4 -12 -8 -12 -8 0 -10 -13 -13 -75 -1 -16 -3
-24 -6 -17 -4 10 -10 7 -21 -9 -11 -16 -12 -24 -4 -27 7 -2 12 -11 12 -21 0
-27 57 -75 90 -77 20 -1 30 3 30 12 0 8 7 14 16 14 8 0 12 5 9 10 -3 6 1 13 9
16 22 8 20 34 -1 35 -12 0 -13 2 -5 6 7 3 20 -1 28 -8 13 -10 17 -10 24 0 4 8
13 10 19 7 16 -10 14 -26 -3 -26 -13 0 -56 -61 -56 -81 0 -14 20 -11 37 6 18
18 33 11 33 -15 0 -13 -5 -17 -15 -14 -9 4 -15 0 -15 -10 0 -9 4 -16 8 -16 5
0 9 -7 9 -15 0 -8 -7 -15 -14 -15 -8 0 -11 5 -7 12 5 8 2 9 -10 5 -13 -5 -17
-3 -13 7 3 8 -5 24 -18 36 -14 13 -21 28 -18 34 4 6 -4 2 -16 -9 l-23 -20 49
-42 c29 -26 54 -40 63 -37 49 20 103 3 85 -25 -3 -7 0 -8 9 -5 9 3 16 14 16
25 0 13 -10 20 -36 25 -25 5 -32 9 -22 15 18 12 75 11 83 -1 4 -6 11 -7 17 -4
10 7 28 -13 28 -31 0 -5 -4 -4 -9 4 -12 18 -32 5 -24 -16 5 -12 2 -15 -10 -10
-11 4 -14 2 -10 -9 3 -7 0 -14 -7 -14 -6 0 -8 -5 -5 -10 3 -6 11 -10 16 -10 6
0 7 5 3 12 -5 7 -2 9 9 5 11 -4 14 -2 10 9 -3 8 1 14 11 14 23 0 20 -17 -7
-34 -24 -16 -71 -11 -60 7 4 6 0 8 -9 5 -8 -4 -21 -2 -29 3 -12 7 -12 9 1 9
13 0 13 2 0 11 -12 9 -12 10 3 5 12 -4 17 -2 15 6 -5 15 -46 20 -66 8 -10 -5
-2 -16 29 -38 24 -18 49 -32 56 -32 7 0 13 -4 13 -9 0 -5 23 -23 51 -41 37
-23 66 -32 105 -34 30 -2 56 -1 58 3 2 3 -7 7 -21 7 -29 2 -37 9 -28 24 5 8
11 6 19 -6 10 -13 17 -14 34 -5 30 16 39 14 38 -11 -1 -19 4 -23 27 -20 15 1
27 -1 27 -5 -1 -16 -26 -40 -38 -35 -7 2 -12 0 -11 -5 4 -21 -4 -22 -42 -3
-23 12 -39 24 -36 27 3 3 16 -2 29 -11 12 -9 25 -16 29 -16 12 0 17 38 7 48
-12 12 -40 4 -32 -9 3 -5 -6 -5 -20 1 -18 7 -26 6 -26 -1 0 -8 -5 -7 -15 1 -9
7 -18 10 -21 7 -3 -3 23 -21 57 -40 52 -29 66 -34 83 -25 19 10 20 10 7 -5
-12 -15 -4 -21 80 -61 85 -41 94 -43 105 -28 7 10 16 13 21 8 4 -5 2 -11 -4
-13 -16 -6 -17 -23 -3 -23 6 0 15 10 19 23 7 16 5 25 -7 34 -9 7 -11 13 -5 13
7 0 15 -5 18 -10 5 -8 12 -7 23 2 14 11 15 10 8 -7 -5 -11 -10 -29 -13 -40 -4
-16 -3 -17 6 -5 7 10 11 11 11 3 0 -10 24 -13 84 -13 l85 0 -4 37 -5 38 9 -33
c10 -38 21 -53 21 -28 0 9 5 14 10 11 6 -4 8 -11 5 -16 -4 -5 -1 -9 5 -9 6 0
10 15 8 35 -1 19 -5 35 -8 35 -4 0 -6 37 -5 83 1 45 0 63 -2 40 -2 -24 -9 -43
-14 -43 -10 0 -7 -30 8 -85 4 -16 3 -18 -7 -8 -13 12 -19 42 -24 123 -1 26 -6
52 -10 59 -10 16 1 59 20 78 13 14 14 13 10 -8 -3 -13 -8 -55 -11 -94 -4 -53
-3 -66 5 -52 6 10 13 67 15 128 2 61 6 114 10 117 4 4 5 -32 3 -81 -2 -48 0
-87 5 -87 4 0 7 -30 7 -67 0 -38 3 -92 6 -120 l7 -53 298 0 299 0 0 35 0 35
1755 0 1755 0 0 -35 0 -35 265 0 265 0 0 68 c1 52 3 63 11 49 6 -10 8 -25 4
-34 -3 -9 0 -20 7 -25 10 -6 10 -8 1 -8 -8 0 -13 -12 -12 -27 0 -16 3 -22 6
-15 2 6 9 10 13 7 5 -3 12 0 16 6 4 7 3 9 -4 5 -6 -3 -14 -1 -18 5 -5 8 1 10
22 6 27 -5 27 -4 9 9 -17 13 -17 14 -1 14 9 0 14 4 11 10 -3 6 1 7 9 4 10 -4
16 -1 16 7 0 12 2 12 9 0 5 -8 14 -10 21 -6 9 6 11 4 5 -4 -6 -10 -2 -10 16 0
13 7 28 12 32 11 5 -1 5 3 1 9 -4 7 -2 10 7 7 17 -7 192 83 182 93 -15 13 -53
21 -53 10 0 -10 14 -15 33 -12 5 1 6 -3 2 -8 -3 -6 -11 -8 -18 -5 -7 2 -22 -4
-32 -16 -10 -11 -23 -20 -29 -20 -6 1 3 12 19 26 l30 26 -27 -6 c-19 -4 -30
-1 -36 10 -9 15 -83 28 -82 14 2 -22 34 -44 60 -42 24 3 29 0 27 -17 -1 -21
-17 -30 -17 -10 0 7 -7 8 -17 4 -10 -4 -27 -8 -38 -9 -38 -3 -65 -17 -65 -34
-1 -16 -2 -16 -14 0 -7 10 -16 15 -19 11 -4 -3 -7 0 -7 8 0 8 4 19 10 25 14
14 19 57 7 72 -16 20 1 27 22 8 17 -16 22 -16 43 -2 30 19 117 20 125 0 7 -18
18 -18 37 2 15 14 17 14 22 -1 4 -9 13 -14 22 -10 8 3 20 1 26 -4 13 -11 58
15 282 166 22 15 31 28 28 38 -4 8 -1 15 5 15 6 0 11 -6 11 -12 0 -7 10 -1 21
15 11 15 25 25 29 22 5 -3 12 0 16 6 4 8 3 9 -4 5 -7 -4 -12 -2 -12 4 0 6 13
13 29 16 16 4 42 20 58 37 15 17 20 25 11 18 -10 -7 -18 -9 -18 -3 0 5 13 15
29 22 29 12 72 50 56 50 -4 0 11 14 34 31 27 19 41 36 37 45 -3 7 0 13 6 11
14 -3 120 151 112 164 -8 14 -24 0 -24 -22 0 -10 -4 -19 -10 -19 -5 0 -10 -8
-10 -17 0 -16 -2 -16 -11 -3 -8 12 -10 12 -8 -5 3 -25 -10 -55 -23 -55 -5 0
-6 6 -1 13 4 6 8 17 10 22 21 106 22 110 7 121 -19 15 -18 53 5 87 25 39 34
19 14 -32 -12 -32 -14 -44 -5 -53 9 -9 17 -6 34 12 29 31 51 91 38 104 -9 9
-14 -3 -12 -25 1 -3 -5 -6 -12 -6 -8 0 -12 7 -11 16 2 9 4 22 4 30 1 7 7 11
15 8 10 -4 12 1 9 16 -4 18 -3 19 6 7 6 -8 11 -24 12 -35 0 -12 3 -15 6 -7 3
7 16 17 29 22 13 5 24 17 24 27 0 15 -2 16 -10 3 -16 -25 -21 -4 -6 24 9 18
16 23 19 14 3 -7 6 -1 6 13 1 15 4 42 7 60 3 19 2 29 -3 22 -4 -6 -8 22 -9 65
0 43 -9 122 -19 176 -21 107 -19 107 -40 -9 -6 -33 -9 -37 -15 -20 -12 29 -11
55 1 30 8 -18 9 -17 5 5 -2 14 -7 32 -10 41 -4 10 0 23 9 33 9 9 13 21 9 27
-4 8 -3 9 4 5 7 -4 12 -1 12 8 0 9 -5 16 -11 16 -5 0 -8 4 -4 9 6 11 -9 85
-26 127 -7 16 -11 36 -10 44 1 8 -10 2 -23 -15 -22 -26 -24 -31 -11 -45 21
-23 19 -28 -8 -26 -19 1 -23 7 -23 33 0 18 4 33 9 33 13 0 47 40 46 54 0 6 -7
27 -14 46 l-13 35 -1 -32 c-1 -17 4 -35 9 -38 12 -7 13 -25 3 -25 -11 1 -47
80 -40 87 3 3 1 17 -4 32 l-9 26 20 -25 c28 -36 25 -17 -21 116 -39 112 -59
158 -46 106 4 -18 3 -21 -8 -12 -10 8 -13 5 -11 -14 0 -13 3 -23 6 -21 3 2 6
-13 7 -33 1 -19 8 -39 15 -43 18 -11 21 -4 9 19 -6 12 -11 33 -10 49 1 24 2
22 10 -11 5 -22 14 -45 19 -51 15 -18 -12 -39 -29 -22 -8 8 -14 9 -19 1 -4 -7
-15 -8 -27 -3 -11 4 -14 8 -6 8 8 1 11 8 8 21 -3 11 -1 23 4 26 5 3 9 10 9 16
0 7 -5 6 -15 -2 -12 -10 -17 -7 -27 14 -6 16 -17 25 -25 22 -7 -3 -13 -1 -13
3 0 5 5 11 11 13 7 2 13 17 15 32 2 16 7 33 13 39 6 6 7 -5 4 -29 -6 -50 12
-35 26 21 9 35 10 36 9 10 0 -45 2 -52 12 -34 12 20 -17 112 -32 103 -6 -4 -8
1 -4 12 3 11 -3 37 -13 59 l-18 40 -1 -38 c0 -21 -5 -43 -10 -50 -6 -6 -12
-21 -15 -32 -2 -11 -3 -6 -1 10 2 17 6 47 9 68 3 22 0 37 -6 37 -6 0 -7 -5 -3
-12 5 -7 3 -8 -5 -4 -7 5 -18 1 -25 -10 -13 -17 -15 -16 -45 9 -17 14 -44 41
-58 58 -23 27 -25 33 -12 43 9 6 23 23 33 37 16 25 16 27 -3 32 -13 3 -21 -1
-24 -15 -3 -12 -10 -17 -17 -13 -7 5 -8 11 -1 19 7 9 7 16 -2 25 -9 9 -9 12 0
9 6 -2 19 6 27 17 8 11 16 15 16 8 0 -15 52 -2 58 15 2 6 -8 23 -23 38 -15 15
-24 33 -21 42 3 10 -8 42 -24 72 -17 32 -29 47 -30 36 0 -25 -5 -18 -14 17 -5
19 -3 26 4 22 6 -3 3 9 -6 29 -10 19 -22 32 -27 29 -6 -4 -8 1 -4 11 6 14 3
17 -9 12 -14 -5 -15 -4 -4 9 8 10 9 15 1 15 -16 0 -25 -51 -12 -71 6 -10 11
-24 11 -31 0 -12 -29 43 -46 87 -7 18 -8 16 -12 -9 -2 -17 2 -32 10 -37 10 -7
10 -9 -2 -9 -11 0 -12 -2 -3 -8 8 -5 9 -13 3 -22 -7 -11 -12 -9 -29 11 -21 26
-36 68 -26 77 3 3 5 -2 5 -11 0 -9 5 -19 12 -23 6 -4 8 -3 4 4 -3 6 -2 13 4
17 6 4 8 10 5 15 -3 4 1 10 9 13 9 4 12 16 9 34 -4 26 -3 27 10 10 13 -16 15
-16 21 -2 7 19 -19 75 -35 75 -6 0 -7 6 -3 13 5 8 2 8 -9 -2 -19 -15 -23 -1
-5 17 10 9 8 16 -5 29 -11 11 -17 13 -17 5 0 -7 5 -12 11 -12 8 0 8 -4 -1 -15
-7 -9 -9 -26 -5 -47 4 -18 4 -30 0 -26 -5 4 -9 31 -11 59 -1 28 -4 53 -7 55
-3 3 -23 6 -46 7 -38 1 -39 2 -19 13 18 10 26 10 37 1 11 -9 13 -9 8 0 -4 6
-3 14 3 18 5 3 10 -1 10 -9 0 -9 5 -16 11 -16 5 0 -10 37 -35 83 -25 45 -51
81 -57 79 -6 -2 -9 4 -6 12 3 8 -1 22 -9 33 -12 16 -13 16 -8 1 7 -19 -10 -25
-21 -8 -4 6 -11 7 -17 4 -6 -4 -6 2 1 15 14 25 23 28 15 4 -5 -14 -4 -15 4 -4
12 17 4 43 -11 34 -6 -4 -7 -1 -3 6 5 7 1 20 -7 29 -8 9 -26 37 -40 62 -27 49
-50 58 -55 23 -2 -13 1 -23 7 -23 6 0 11 10 11 23 0 17 2 19 10 7 5 -9 5 -19
-1 -26 -6 -7 -5 -22 2 -42 8 -22 7 -36 -1 -53 -10 -18 -10 -21 2 -16 11 4 14
-1 10 -19 -4 -22 -18 -29 -49 -25 -7 1 -13 -7 -13 -19 0 -19 -4 -22 -32 -24
-7 -1 -16 -10 -20 -21 -4 -15 -6 -12 -7 13 -1 20 3 31 9 27 6 -3 10 1 10 9 0
9 -9 16 -20 16 -18 0 -20 -7 -20 -55 0 -30 -5 -67 -11 -82 -6 -15 -15 -37 -20
-48 -4 -11 -10 -83 -14 -160 -3 -77 -10 -214 -16 -305 -5 -91 -8 -208 -6 -260
3 -55 2 -80 -3 -60 -5 24 -6 6 -5 -53 1 -48 -1 -90 -5 -92 -3 -2 -7 -41 -9
-87 -6 -132 -7 -150 -20 -398 -7 -129 -14 -239 -16 -245 -9 -26 -1 154 40 930
25 462 45 850 45 863 l0 22 -1152 2 -1153 3 1134 5 c895 4 1135 8 1139 18 2 6
8 12 14 12 6 0 8 -7 4 -15 -3 -8 -1 -15 4 -15 6 0 10 5 10 12 0 6 3 8 7 5 3
-4 17 0 31 9 17 11 27 13 35 5 17 -17 47 -13 47 5 0 9 12 25 26 36 20 16 24
26 19 47 -9 34 -33 61 -51 54 -9 -3 -14 2 -14 14 0 10 -5 24 -12 31 -7 7 -9
12 -5 12 4 0 3 9 -3 20 -8 15 -7 26 6 44 16 25 11 52 -7 40 -5 -3 -8 -2 -7 3
3 11 -28 67 -45 81 -12 10 -14 8 -14 -10 1 -35 -13 -88 -24 -88 -13 0 -11 34
3 48 24 24 17 77 -16 117 -30 35 -56 42 -56 13 0 -6 7 -5 18 3 15 13 16 12 3
-4 -8 -9 -11 -21 -7 -24 4 -4 11 -2 15 5 6 10 10 10 20 -1 9 -12 6 -15 -16
-15 -18 0 -37 10 -53 28 -14 15 -32 29 -40 32 -12 5 -12 7 3 13 12 5 22 2 31
-10 11 -15 13 -15 25 -1 8 9 12 16 10 17 -2 0 -11 2 -20 4 -10 1 -27 13 -39
25 -23 23 -41 20 -21 -4 9 -11 9 -16 0 -22 -8 -5 -9 -3 -4 6 6 10 4 12 -8 7
-11 -4 -17 -1 -17 7 0 8 -6 17 -12 19 -7 3 -3 6 10 6 12 1 22 6 22 11 0 6 5
10 11 10 5 0 8 -3 6 -7 -2 -5 9 -18 24 -31 16 -13 29 -20 29 -15 0 16 -66 74
-75 66 -4 -5 -5 -3 -2 4 8 13 -38 53 -59 53 -8 0 -13 4 -12 9 2 5 -1 10 -7 12
-5 2 -17 12 -26 23 -16 19 -45 14 -33 -6 4 -6 2 -8 -3 -5 -6 4 -18 -2 -28 -13
-10 -11 -24 -20 -32 -20 -7 0 -13 -5 -13 -11 0 -5 -4 -7 -10 -4 -5 3 -9 17 -8
30 2 19 5 22 20 14 12 -6 24 -6 36 0 15 10 14 10 -5 8 -12 -1 -22 3 -22 8 -1
6 10 10 24 10 13 1 27 4 30 7 10 10 -79 58 -223 120 -103 45 -138 55 -152 48
-26 -14 -30 -13 -30 8 0 13 2 14 9 3 5 -7 11 -9 14 -3 4 5 -12 17 -35 26 -37
14 -43 14 -58 1 -22 -20 -43 -19 -87 5 -21 11 -43 20 -50 20 -7 0 -13 5 -13
10 0 6 5 10 11 10 5 0 7 5 4 10 -3 6 -1 10 4 10 6 0 11 -9 11 -20 0 -12 7 -20
18 -20 14 0 15 2 2 10 -8 5 -10 10 -5 10 19 -1 47 -28 34 -32 -9 -3 -7 -7 5
-11 9 -4 15 -3 12 2 -9 14 25 23 40 10 10 -8 14 -8 14 0 0 12 -47 27 -70 22
-8 -2 -12 1 -7 5 11 11 -50 34 -70 27 -10 -4 -14 -2 -10 4 9 14 -18 24 -40 16
-11 -4 -14 -3 -9 5 5 8 1 10 -10 5 -12 -4 -15 -3 -10 5 7 11 -7 16 -41 15 -7
-1 -10 4 -6 10 4 7 0 8 -11 4 -10 -4 -25 -7 -34 -8 -9 0 -4 -5 12 -11 19 -7
24 -13 16 -18 -9 -6 -6 -10 9 -15 11 -3 21 -14 21 -23 -1 -15 -2 -15 -15 2 -8
10 -19 15 -26 10 -8 -4 -10 -3 -5 4 5 8 -2 10 -25 5 -29 -6 -31 -5 -20 15 8
15 8 21 -3 25 -7 3 -16 14 -18 25 -4 15 -2 19 8 15 8 -3 14 -12 14 -20 0 -10
6 -13 16 -9 9 3 21 6 27 7 7 0 -8 9 -32 20 -34 15 -47 17 -58 8 -11 -9 -12 -9
-7 4 4 12 1 14 -16 10 -16 -4 -18 -8 -8 -14 7 -5 9 -9 3 -9 -11 0 26 -27 39
-28 12 0 26 -24 19 -34 -2 -5 -13 -6 -23 -3 -13 4 -20 0 -25 -15 -7 -23 -25
-18 -25 8 0 13 2 14 9 4 7 -11 10 -10 15 3 8 23 8 27 -4 20 -5 -3 -10 3 -10
15 0 11 -9 28 -20 37 -15 14 -17 20 -7 32 10 11 9 13 -3 9 -8 -3 -23 5 -33 16
-10 12 -40 26 -65 32 -26 6 -55 15 -66 19 -21 9 -21 19 4 -121 8 -43 10 -78 5
-90 -9 -20 -12 -30 -14 -51 0 -7 -6 -13 -12 -13 -5 0 -7 5 -3 12 4 7 3 8 -4 4
-7 -4 -12 -15 -12 -25 0 -10 -8 -25 -17 -32 -17 -13 -17 -13 -3 6 14 19 14 19
-2 6 -10 -7 -18 -19 -18 -27 0 -7 -5 -16 -12 -20 -7 -5 -9 -2 -4 7 4 8 -3 3
-16 -11 -13 -14 -46 -43 -73 -65 -28 -21 -58 -48 -68 -60 -10 -11 -16 -14 -12
-6 5 9 -1 8 -19 -4 -26 -17 -37 -32 -13 -19 9 5 9 4 0 -6 -6 -7 -22 -14 -35
-15 -30 -4 -118 -44 -98 -45 8 -1 -6 -12 -33 -26 -48 -25 -165 -59 -174 -51
-2 3 17 10 44 15 61 13 107 31 100 38 -2 3 -20 -1 -38 -9 -19 -8 -76 -22 -126
-33 -51 -10 -93 -21 -93 -24 0 -10 -415 -11 -482 -1 -43 6 -80 6 -102 0 -24
-7 -49 -5 -87 5 -30 8 -45 15 -33 15 12 1 34 -4 51 -9 20 -8 37 -7 54 0 22 10
21 10 -9 5 -18 -2 -31 -1 -28 3 6 11 -11 13 -89 13 -45 1 -52 2 -30 8 21 4 25
8 15 13 -127 53 -169 66 -189 61 -15 -4 -19 -8 -11 -13 9 -5 9 -9 1 -14 -6 -4
-11 -2 -11 4 0 6 -4 9 -8 6 -4 -2 -14 0 -22 6 -13 8 -12 9 2 5 9 -3 23 2 32
12 15 16 13 19 -27 41 -23 13 -63 39 -89 57 -52 38 -64 36 -20 -2 15 -13 24
-25 20 -25 -4 0 -14 7 -23 16 -9 9 -26 17 -37 18 -26 1 -55 41 -37 52 8 4 9 3
5 -4 -4 -7 -2 -12 4 -12 6 0 9 -4 6 -9 -3 -5 0 -11 7 -14 20 -8 14 33 -6 45
-10 5 -22 6 -29 2 -8 -5 -9 -2 -5 9 4 10 -2 23 -16 35 -68 56 -102 178 -77
281 14 58 10 75 -8 33z m-77 -22 c-3 -5 -12 -10 -18 -10 -7 0 -6 4 3 10 19 12
23 12 15 0z m-203 -105 c-2 -19 -8 -35 -12 -35 -5 0 -7 12 -5 28 2 15 4 30 4
35 1 4 5 7 9 7 4 0 6 -16 4 -35z m28 -19 c0 -3 -4 -8 -10 -11 -5 -3 -10 -1
-10 4 0 6 5 11 10 11 6 0 10 -2 10 -4z m2660 0 c0 -2 -7 -7 -16 -10 -8 -3 -12
-2 -9 4 6 10 25 14 25 6z m27 -22 c-3 -3 -12 -4 -19 -1 -8 3 -5 6 6 6 11 1 17
-2 13 -5z m87 -70 c22 -9 25 -12 12 -17 -9 -4 -16 -3 -16 2 0 4 -12 13 -26 19
-15 7 -22 17 -18 24 4 6 3 8 -4 5 -5 -4 -8 -16 -5 -27 4 -14 0 -20 -12 -20
-12 0 -15 5 -9 22 6 19 5 21 -8 11 -7 -7 -30 -13 -51 -15 -20 -1 -39 -8 -41
-15 -3 -7 -19 -13 -36 -13 -23 0 -30 4 -30 20 0 12 7 21 18 21 9 1 24 3 32 4
8 1 29 3 47 4 17 0 39 8 47 17 9 8 16 13 16 9 0 -4 8 1 17 11 16 16 18 15 28
-17 7 -21 22 -37 39 -45z m-2787 44 c-3 -8 -6 -5 -6 6 -1 11 2 17 5 13 3 -3 4
-12 1 -19z m2534 8 c5 3 9 -2 9 -11 0 -23 -24 -13 -27 11 -2 10 0 13 3 6 3 -6
10 -10 15 -6z m-2581 -20 c0 -6 4 -4 10 4 8 12 10 12 16 -3 3 -9 3 -25 -1 -34
-5 -13 -9 -14 -12 -5 -3 7 -14 17 -25 23 -15 8 -19 8 -14 0 5 -7 -1 -11 -14
-11 -16 0 -20 -4 -16 -16 5 -14 4 -15 -8 -5 -10 8 -21 9 -33 3 -10 -5 -27 -6
-38 -2 -18 7 -19 8 -2 15 9 4 24 5 32 1 9 -3 15 0 15 9 0 8 6 15 14 15 7 0 19
6 25 14 13 16 51 10 51 -8z m-255 -46 c3 -5 2 -10 -4 -10 -5 0 -13 5 -16 10
-3 6 -2 10 4 10 5 0 13 -4 16 -10z m3249 -11 c-3 -5 -10 -7 -15 -3 -5 3 -7 10
-3 15 3 5 10 7 15 3 5 -3 7 -10 3 -15z m-2997 -11 c-3 -8 -6 -5 -6 6 -1 11 2
17 5 13 3 -3 4 -12 1 -19z m2550 -10 c-3 -7 -5 -2 -5 12 0 14 2 19 5 13 2 -7
2 -19 0 -25z m-2980 -4 c-3 -3 -12 -4 -19 -1 -8 3 -5 6 6 6 11 1 17 -2 13 -5z
m453 -9 c0 -8 -7 -15 -15 -15 -13 0 -14 3 -3 15 16 18 18 18 18 0z m3094 -12
c4 -9 13 -13 22 -9 9 3 12 2 9 -4 -4 -6 -14 -9 -23 -8 -9 2 -16 -3 -14 -9 1
-7 -3 -13 -9 -13 -6 0 -9 7 -5 15 6 18 2 18 -42 6 -25 -8 -32 -7 -32 4 0 8 5
17 12 21 7 4 8 3 4 -4 -12 -19 9 -14 28 7 19 21 41 19 50 -6z m-3061 -3 c3
-11 1 -20 -4 -20 -5 0 -9 9 -9 20 0 11 2 20 4 20 2 0 6 -9 9 -20z m353 -27
c-7 -7 -26 7 -26 19 0 6 6 6 15 -2 9 -7 13 -15 11 -17z m-739 11 c-3 -3 -12
-4 -19 -1 -8 3 -5 6 6 6 11 1 17 -2 13 -5z m2880 -66 c-2 -13 -4 -3 -4 22 0
25 2 35 4 23 2 -13 2 -33 0 -45z m686 45 c18 -9 35 -16 38 -16 3 1 6 -4 6 -12
0 -11 -7 -9 -28 6 -15 10 -32 19 -37 19 -6 0 -14 5 -17 10 -9 14 1 12 38 -7z
m-3555 -10 c-2 -10 -12 -18 -23 -18 -11 0 -21 8 -23 18 -3 13 3 17 23 17 20 0
26 -4 23 -17z m3417 -13 c15 -16 32 -27 37 -24 4 3 8 -2 8 -10 0 -20 -19 -20
-44 -1 -11 8 -28 15 -37 15 -24 0 -33 18 -19 35 17 21 22 19 55 -15z m-3015
-12 c0 -5 -4 -8 -10 -8 -5 0 -10 10 -10 23 0 18 2 19 10 7 5 -8 10 -18 10 -22z
m3114 20 c-4 -7 -3 -8 4 -4 10 6 50 -10 62 -25 3 -4 14 -9 25 -11 11 -2 -16
-4 -60 -4 -44 0 -73 2 -64 4 11 2 15 10 11 27 -3 19 0 25 12 25 11 0 14 -5 10
-12z m-3164 -56 c0 -44 0 -45 -20 -27 -19 17 -27 64 -14 78 17 17 34 -8 34
-51z m3305 18 c11 -17 -5 -11 -28 11 l-22 21 22 -11 c12 -6 25 -16 28 -21z
m-3854 -5 c0 -13 -27 -18 -48 -11 -12 5 -13 9 -3 21 12 15 52 7 51 -10z m-201
-5 c0 -5 -6 -10 -14 -10 -8 0 -23 -3 -33 -6 -10 -3 -7 2 7 10 30 18 40 20 40
6z m807 -24 c-1 -19 -6 -31 -10 -27 -7 7 0 61 8 61 2 0 3 -15 2 -34z m3311 9
c1 -1 -9 -10 -22 -19 -18 -11 -27 -13 -32 -4 -4 7 -3 8 5 4 8 -5 10 0 7 18 -4
24 -3 25 17 15 12 -7 23 -13 25 -14z m-3284 -20 c3 -8 1 -15 -4 -15 -6 0 -10
7 -10 15 0 8 2 15 4 15 2 0 6 -7 10 -15z m401 -23 c-3 -3 -16 5 -28 17 l-22
23 28 -17 c15 -10 25 -20 22 -23z m51 -3 c5 0 18 -2 28 -5 18 -6 18 -7 -5 -20
-13 -7 -18 -13 -11 -14 6 0 12 -5 12 -11 0 -6 -14 0 -32 12 -17 13 -26 25 -20
27 6 2 8 11 5 20 -4 13 -3 14 5 4 5 -8 13 -13 18 -13z m1977 -16 c-6 -2 -9
-14 -6 -26 4 -21 4 -22 -11 -3 -10 13 -12 22 -6 26 6 4 7 15 3 26 -7 19 -7 19
12 0 13 -12 16 -21 8 -23z m-3379 21 c11 -4 14 -13 10 -30 -5 -19 -3 -23 9
-18 8 3 18 0 23 -7 4 -8 3 -10 -4 -5 -7 4 -12 2 -12 -5 0 -8 -5 -7 -17 3 -10
8 -26 18 -36 21 -10 4 -15 12 -12 18 4 6 13 8 21 5 8 -3 14 -1 14 3 0 5 -6 12
-12 14 -7 3 -10 6 -6 6 3 1 13 -2 22 -5z m124 -13 c32 -27 28 -51 -8 -51 -23
0 -30 -4 -30 -20 0 -22 -15 -27 -23 -7 -3 7 -6 5 -6 -5 -1 -22 -17 -23 -25 -2
-4 10 3 18 23 25 19 7 31 19 34 34 4 22 1 24 -22 19 l-26 -5 25 15 c32 20 33
20 58 -3z m4188 -2 c1 -5 2 -13 3 -18 1 -8 33 -24 52 -26 11 -1 40 -35 29 -35
-6 0 -9 -4 -5 -9 3 -5 0 -13 -6 -16 -17 -11 -23 3 -8 22 11 15 9 14 -9 -1 -19
-17 -22 -17 -16 -3 3 9 10 17 15 17 5 0 9 5 9 10 0 6 -3 9 -7 9 -31 -5 -53 4
-59 24 -11 32 -13 50 -6 42 4 -4 8 -11 8 -16z m-3446 -9 c0 -11 -4 -20 -10
-20 -5 0 -10 9 -10 20 0 11 5 20 10 20 6 0 10 -9 10 -20z m3454 -50 c7 -7 2
-10 -13 -10 -12 0 -19 -4 -16 -10 3 -5 -1 -10 -9 -10 -9 0 -16 8 -16 19 0 11
-6 22 -12 25 -7 4 3 4 22 1 19 -3 39 -10 44 -15z m-3339 -10 c0 -11 -13 -16
-47 -18 -29 -2 -48 1 -48 7 0 6 9 11 20 11 11 0 20 5 20 11 0 6 12 9 28 7 16
-2 27 -9 27 -18z m585 -1 c10 -6 5 -7 -14 -3 -19 5 -27 3 -23 -3 4 -6 1 -13
-6 -16 -8 -3 -14 1 -14 9 0 8 5 14 11 14 6 0 4 5 -4 11 -11 8 -9 9 10 3 14 -3
32 -10 40 -15z m1230 11 c-8 -5 -19 -10 -25 -10 -5 0 -3 5 5 10 8 5 20 10 25
10 6 0 3 -5 -5 -10z m-2815 -10 c31 -12 24 -30 -10 -30 -26 0 -40 14 -30 30 8
12 8 12 40 0z m3357 -3 c20 16 43 1 46 -29 3 -23 0 -28 -18 -28 -18 0 -21 5
-18 23 4 18 0 22 -24 23 -17 1 -28 -4 -28 -12 0 -7 -8 -17 -17 -23 -14 -8 -15
-12 -4 -25 7 -9 9 -16 3 -16 -5 0 -15 7 -22 14 -9 12 -5 22 22 50 21 22 35 30
40 23 4 -7 10 -8 20 0z m-3152 -7 c0 -5 -4 -10 -10 -10 -5 0 -10 5 -10 10 0 6
5 10 10 10 6 0 10 -4 10 -10z m830 0 c0 -5 -4 -10 -10 -10 -5 0 -10 5 -10 10
0 6 5 10 10 10 6 0 10 -4 10 -10z m-1140 -15 c0 -9 -9 -15 -22 -15 -22 1 -23
1 -4 15 25 19 26 19 26 0z m4380 11 c0 -9 -40 -13 -46 -5 -3 5 6 9 20 9 14 0
26 -2 26 -4z m-2610 -22 c0 -2 -9 -4 -21 -4 -11 0 -18 4 -14 10 5 8 35 3 35
-6z m-1860 -4 c0 -5 -2 -10 -4 -10 -3 0 -8 5 -11 10 -3 6 -1 10 4 10 6 0 11
-4 11 -10z m1365 -51 c24 -16 25 -19 8 -14 -14 4 -23 2 -23 -4 0 -6 -20 -11
-45 -11 -25 0 -45 5 -45 10 0 10 35 15 74 11 15 -1 12 6 -15 30 -33 31 -27 28
46 -22z m-1325 30 c0 -4 3 -15 6 -23 5 -13 0 -16 -24 -14 -21 1 -32 8 -36 21
-3 12 -9 16 -17 11 -10 -6 -10 -9 -1 -12 13 -4 7 -22 -7 -22 -7 0 -8 38 -2 47
4 5 81 -3 81 -8z m28 -3 c-7 -8 -15 -12 -17 -11 -5 6 10 25 20 25 5 0 4 -6 -3
-14z m1762 4 c18 -12 2 -12 -25 0 -13 6 -15 9 -5 9 8 0 22 -4 30 -9z m2751
-17 c0 -16 3 -23 5 -16 8 19 62 -41 60 -68 -1 -18 -7 -24 -26 -26 -22 -1 -22
-1 -2 4 12 2 22 8 22 13 0 10 -29 22 -40 15 -7 -5 -40 70 -40 93 0 25 20 11
21 -15z m-3361 -3 c0 -11 5 -20 10 -20 6 0 10 -9 10 -20 0 -11 5 -20 10 -20 6
0 10 -9 10 -20 0 -13 -7 -20 -20 -20 -16 0 -20 7 -20 30 0 17 -4 30 -10 30 -5
0 -10 14 -10 30 0 17 5 30 10 30 6 0 10 -9 10 -20z m80 5 c10 -12 10 -15 -4
-15 -9 0 -16 7 -16 15 0 8 2 15 4 15 2 0 9 -7 16 -15z m-1363 -10 c0 -8 -4
-12 -8 -10 -3 3 -12 -2 -19 -10 -10 -12 -7 -14 17 -12 15 2 34 -4 41 -13 11
-13 12 -13 6 0 -4 9 -3 12 2 7 5 -5 9 -14 9 -20 0 -7 5 -12 10 -12 6 -1 21 -7
34 -14 20 -11 23 -11 19 1 -4 9 1 14 13 15 10 1 19 -3 19 -8 0 -6 -4 -8 -9 -5
-5 3 -12 -1 -15 -10 -3 -9 -11 -12 -18 -8 -7 4 -27 7 -44 6 -22 -2 -36 3 -43
15 -6 10 -11 15 -11 11 0 -3 -11 3 -24 15 l-25 22 21 22 c25 27 25 27 25 8z
m2783 -2 c-14 -3 -29 -9 -34 -14 -13 -12 -26 -12 -26 0 0 11 25 19 60 18 l25
0 -25 -4z m732 -15 c-12 -12 -35 -1 -27 12 3 5 13 6 21 3 10 -4 12 -9 6 -15z
m-3372 -13 c0 -25 -14 -34 -24 -16 -8 12 3 41 15 41 5 0 9 -11 9 -25z m1847
19 c-3 -3 -12 -4 -19 -1 -8 3 -5 6 6 6 11 1 17 -2 13 -5z m168 -4 c-11 -5 -27
-9 -35 -9 -9 0 -8 4 5 9 11 5 27 9 35 9 9 0 8 -4 -5 -9z m-105 -10 c11 -8 7
-9 -15 -4 -37 8 -45 14 -19 14 10 0 26 -5 34 -10z m165 0 c4 -6 -7 -10 -27
-10 -25 0 -29 3 -18 10 19 13 37 13 45 0z m1392 -5 c14 -14 13 -18 -6 -34 -16
-14 -18 -21 -9 -24 7 -3 3 -6 -9 -6 -18 -1 -23 4 -23 24 0 22 16 53 28 55 2 0
10 -7 19 -15z m-1218 -11 c8 -7 -84 -2 -109 6 -15 5 1 6 40 3 36 -3 67 -7 69
-9z m141 3 c8 -3 22 -8 30 -11 8 -2 -5 -3 -30 -1 -25 2 -47 4 -50 5 -3 1 -23
2 -45 2 l-40 0 35 8 c37 8 75 7 100 -3z m76 5 c-5 -8 -66 -4 -66 4 0 2 16 4
36 4 19 0 33 -4 30 -8z m859 -2 c3 -5 -1 -10 -10 -10 -9 0 -13 5 -10 10 3 6 8
10 10 10 2 0 7 -4 10 -10z m-2007 -18 c-36 -21 -36 -36 -1 -27 16 4 24 3 20
-1 -13 -13 -71 -13 -79 -1 -6 9 -11 8 -17 -3 -6 -8 -13 -11 -17 -8 -11 11 23
38 48 38 13 0 30 5 38 10 8 5 20 10 25 10 6 0 -2 -8 -17 -18z m675 11 c-7 -2
-21 -2 -30 0 -10 3 -4 5 12 5 17 0 24 -2 18 -5z m514 1 c-3 -3 -12 -4 -19 -1
-8 3 -5 6 6 6 11 1 17 -2 13 -5z m-439 -11 c-10 -2 -26 -2 -35 0 -10 3 -2 5
17 5 19 0 27 -2 18 -5z m272 -3 c0 -5 -5 -10 -11 -10 -5 0 -7 5 -4 10 3 6 8
10 11 10 2 0 4 -4 4 -10z m-948 -20 c18 -11 29 -20 25 -20 -11 0 -67 29 -67
35 0 9 9 5 42 -15z m861 13 c-23 -2 -64 -2 -90 0 -26 2 -7 3 42 3 50 0 71 -1
48 -3z m1147 -13 c0 -16 -7 -20 -34 -20 -19 0 -38 5 -42 12 -5 8 2 9 24 5 24
-5 32 -3 32 8 0 8 5 15 10 15 6 0 10 -9 10 -20z m-155 0 c-3 -5 -11 -10 -16
-10 -6 0 -7 5 -4 10 3 6 11 10 16 10 6 0 7 -4 4 -10z m1251 -28 c-10 -10 -29
15 -21 28 6 9 10 8 17 -4 6 -10 7 -20 4 -24z m124 19 c0 -6 -9 -9 -20 -8 -11
1 -20 5 -20 9 0 4 9 8 20 8 11 0 20 -4 20 -9z m-1418 -8 c-6 -2 -10 -9 -6 -14
3 -5 1 -9 -5 -9 -5 0 -12 4 -15 9 -6 9 10 19 29 19 6 0 4 -2 -3 -5z m1498 -66
c0 -5 -10 -5 -21 -2 -20 7 -22 5 -16 -29 5 -31 3 -37 -11 -34 -23 4 -29 56 -8
64 9 3 16 18 16 33 l0 26 20 -25 c11 -14 20 -29 20 -33z m-3230 39 c0 -2 -7
-7 -16 -10 -8 -3 -12 -2 -9 4 6 10 25 14 25 6z m1695 -6 c-3 -5 -10 -10 -16
-10 -5 0 -9 5 -9 10 0 6 7 10 16 10 8 0 12 -4 9 -10z m-1617 -36 c2 -1 -4 -4
-13 -8 -9 -3 -13 -2 -10 4 3 6 1 10 -4 10 -6 0 -11 5 -11 11 0 8 6 7 18 -2 9
-7 18 -14 20 -15z m1636 5 c-3 -5 -10 -7 -15 -4 -5 4 -9 -8 -9 -24 0 -24 4
-31 20 -31 13 0 20 -7 20 -20 0 -13 -7 -20 -20 -20 -13 0 -20 7 -20 20 0 17
-7 20 -50 20 -27 0 -50 5 -50 10 0 6 14 10 31 10 27 0 30 3 24 23 -5 17 -4 19
4 7 9 -13 13 -12 32 7 21 21 46 22 33 2z m-3444 -14 c-8 -10 -7 -14 2 -18 8
-3 6 -6 -6 -6 -13 -1 -16 4 -12 15 3 9 6 20 6 25 0 6 5 7 10 4 8 -5 8 -11 0
-20z m1750 14 c12 -8 9 -9 -10 -5 -25 6 -25 6 -2 -5 31 -17 28 -29 -8 -29 -24
0 -30 4 -28 18 5 30 24 38 48 21z m1607 5 c-3 -3 -12 -4 -19 -1 -8 3 -5 6 6 6
11 1 17 -2 13 -5z m1683 -64 c-1 -9 -7 -5 -15 10 -14 25 -14 25 -15 3 0 -13
-4 -23 -9 -23 -6 0 -6 12 -2 28 4 15 6 34 4 42 -3 8 5 2 16 -15 12 -16 21 -37
21 -45z m-5100 41 c-15 -29 -12 -40 10 -34 14 4 20 0 20 -10 0 -25 -20 -31
-40 -12 -10 9 -25 14 -32 10 -7 -3 -6 -1 3 7 9 7 21 23 28 36 6 12 14 22 17
22 2 0 0 -9 -6 -19z m3370 9 c-8 -5 -19 -10 -25 -10 -5 0 -3 5 5 10 8 5 20 10
25 10 6 0 3 -5 -5 -10z m-1461 -17 c6 -10 11 -15 11 -10 0 8 60 -20 60 -29 0
-2 -10 1 -22 7 -12 6 -38 14 -57 16 -43 6 -50 11 -31 23 21 14 28 12 39 -7z
m1411 -8 c-7 -8 -18 -15 -24 -15 -6 0 -2 7 8 15 25 19 32 19 16 0z m-3150 -5
c0 -6 -7 -13 -15 -16 -8 -4 -15 -14 -15 -24 0 -21 -31 -34 -59 -25 -18 5 -20
36 -3 34 21 -3 50 15 45 27 -4 10 3 14 21 14 14 0 26 -5 26 -10z m3190 -8 c0
-4 -16 -14 -36 -21 -29 -10 -38 -10 -47 -1 -7 7 -7 10 -2 7 6 -3 24 1 40 8 36
16 45 17 45 7z m-1380 -45 c0 -1 -13 -2 -29 -3 -23 -1 -26 2 -18 11 8 9 18 10
30 4 9 -6 17 -11 17 -12z m30 13 c0 -5 -2 -10 -4 -10 -3 0 -8 5 -11 10 -3 6
-1 10 4 10 6 0 11 -4 11 -10z m1246 -8 c-3 -2 -22 -6 -43 -8 -25 -2 -32 0 -23
6 8 5 23 7 34 4 12 -4 16 -2 12 5 -5 7 -1 9 9 5 9 -4 14 -9 11 -12z m104 8 c0
-13 -42 -23 -71 -17 -16 3 -12 5 14 6 20 0 37 6 37 11 0 6 5 10 10 10 6 0 10
-4 10 -10z m1620 -10 c0 -5 -2 -10 -4 -10 -3 0 -8 5 -11 10 -3 6 -1 10 4 10 6
0 11 -4 11 -10z m-2923 -20 c14 -11 21 -20 15 -20 -12 0 -60 39 -49 40 5 0 20
-9 34 -20z m3008 10 c3 -5 1 -10 -4 -10 -6 0 -11 5 -11 10 0 6 2 10 4 10 3 0
8 -4 11 -10z m-1905 -20 c0 -5 -5 -10 -11 -10 -5 0 -7 5 -4 10 3 6 8 10 11 10
2 0 4 -4 4 -10z m-3167 -17 c-7 -2 -13 -11 -13 -19 0 -9 4 -13 9 -9 5 3 3 -9
-6 -26 -10 -21 -18 -27 -23 -19 -6 9 -9 9 -13 -1 -4 -8 -4 0 0 16 6 33 30 65
47 64 6 0 6 -3 -1 -6z m2058 -4 c15 -8 25 -7 37 3 16 12 16 11 2 -7 -8 -11
-15 -21 -16 -23 -3 -6 -54 22 -54 30 0 11 7 10 31 -3z m1132 3 c14 7 17 5 17
-12 0 -11 -6 -20 -12 -21 -10 0 -10 -2 0 -6 26 -10 10 -23 -28 -23 -25 0 -40
5 -41 13 0 6 -2 22 -3 33 -2 19 1 21 24 14 15 -4 34 -3 43 2z m-1153 -35 c10
-4 8 -6 -7 -6 -16 -1 -23 5 -23 17 0 10 3 13 8 6 4 -6 14 -14 22 -17z m100 -1
c-4 -4 -16 -4 -26 2 -16 9 -14 10 8 9 15 -1 23 -6 18 -11z m-30 -16 c0 -5 -4
-10 -10 -10 -5 0 -10 5 -10 10 0 6 5 10 10 10 6 0 10 -4 10 -10z m40 -20 c0
-5 6 -10 14 -10 8 0 16 -6 19 -12 3 -10 7 -10 20 1 10 7 17 9 17 3 0 -14 -26
-23 -82 -28 -43 -4 -48 -3 -48 16 0 11 5 20 10 20 6 0 10 -4 10 -10 0 -5 5
-10 10 -10 6 0 10 9 10 20 0 11 5 20 10 20 6 0 10 -4 10 -10z m-2290 -15 c-7
-9 -15 -13 -17 -11 -7 7 7 26 19 26 6 0 6 -6 -2 -15z m141 -4 c-20 -13 47 -26
117 -23 40 1 52 -2 52 -13 0 -22 -162 -22 -180 0 -14 17 -7 45 12 45 10 0 9
-3 -1 -9z m5239 -18 c-1 -24 -2 -26 -11 -10 -5 9 -7 22 -4 27 10 17 15 11 15
-17z m-2275 7 c-3 -5 -16 -15 -28 -21 -21 -10 -21 -9 2 10 25 23 36 27 26 11z
m35 -10 c0 -5 -5 -10 -11 -10 -5 0 -7 5 -4 10 3 6 8 10 11 10 2 0 4 -4 4 -10z
m50 0 c0 -5 -2 -10 -4 -10 -3 0 -8 5 -11 10 -3 6 -1 10 4 10 6 0 11 -4 11 -10z
m2100 -5 c0 -8 5 -15 10 -15 6 0 5 -6 -2 -14 -7 -8 -16 -12 -21 -9 -4 2 -20 7
-34 9 -44 8 -46 24 -4 27 11 1 21 5 21 9 0 4 7 8 15 8 8 0 15 -7 15 -15z m120
-73 c-11 -16 -11 -16 -6 0 5 17 -9 35 -17 21 -2 -5 -2 -2 0 5 1 8 3 21 3 30 1
11 6 8 16 -11 11 -21 12 -31 4 -45z m-2985 40 c-3 -3 -11 0 -18 7 -9 10 -8 11
6 5 10 -3 15 -9 12 -12z m665 -7 c-16 -17 -20 -29 -14 -35 6 -6 379 -11 1029
-13 l1020 -2 -1084 -3 c-940 -2 -1165 1 -1044 14 14 2 30 9 36 16 6 9 7 8 3
-4 -3 -12 0 -18 10 -18 9 0 14 6 11 13 -5 13 30 57 46 57 6 0 0 -11 -13 -25z
m-629 -45 c9 0 22 -7 29 -15 8 -9 8 -15 2 -15 -6 0 -12 4 -14 10 -2 6 -408 11
-1150 12 -630 2 -1144 1 -1141 -2 2 -3 500 -7 1106 -10 l1102 -5 -1102 -3
c-726 -1 -1104 1 -1108 8 -8 13 -25 13 -25 0 0 -6 13 -13 30 -16 16 -4 27 -10
24 -15 -3 -5 500 -10 1163 -12 l1168 -2 -1178 -3 -1179 -2 6 -82 c3 -46 13
-207 22 -358 8 -151 21 -384 29 -518 14 -230 18 -388 8 -302 -3 19 -10 41 -16
49 -9 11 -9 13 0 8 15 -9 5 192 -11 212 -6 8 -6 12 -1 9 13 -8 7 173 -6 187
-6 5 -9 5 -9 -3 0 -21 -16 -13 -17 8 -1 11 2 18 6 15 11 -6 21 56 20 120 -1
46 -1 48 -10 20 -5 -16 -7 -39 -5 -50 3 -11 1 -27 -5 -35 -7 -10 -8 3 -4 45
11 128 10 258 -2 262 -17 6 -26 63 -14 93 8 22 9 20 6 -16 -2 -22 1 -47 6 -55
6 -9 7 36 3 126 -4 77 -8 142 -9 143 -2 2 -6 -21 -10 -52 -9 -71 -20 -72 -21
-3 -1 37 1 45 6 27 8 -24 8 -24 9 5 1 17 5 36 9 43 12 18 -1 95 -16 98 -7 1
-8 0 -2 -3 14 -6 13 -43 -1 -43 -6 0 -9 6 -6 14 3 7 1 18 -5 24 -17 17 1 32
30 27 l27 -5 -27 11 c-36 14 -36 49 0 57 37 7 132 8 120 1 -7 -5 467 -9 1055
-9 l1067 0 -20 22 c-33 35 -23 43 12 9 17 -17 39 -31 49 -31z m564 36 c-16
-13 -32 -22 -35 -19 -6 5 41 42 55 43 6 0 -3 -11 -20 -24z m2149 8 c19 -7 21
-21 4 -27 -7 -2 -3 -2 10 0 12 2 22 -1 22 -7 0 -11 -69 -13 -86 -2 -6 4 -13
15 -17 25 -5 14 -1 17 22 17 16 0 36 -3 45 -6z m-5177 -76 c-3 -8 -6 -5 -6 6
-1 11 2 17 5 13 3 -3 4 -12 1 -19z m5166 15 c-7 -2 -19 -2 -25 0 -7 3 -2 5 12
5 14 0 19 -2 13 -5z m-2166 -9 c-3 -3 -12 -4 -19 -1 -8 3 -5 6 6 6 11 1 17 -2
13 -5z m2125 -2 c16 -6 -1276 -6 -1872 1 -135 1 228 3 805 4 578 1 1058 -1
1067 -5z m-4844 -19 c-10 -2 -26 -2 -35 0 -10 3 -2 5 17 5 19 0 27 -2 18 -5z
m5166 -24 c-3 -5 0 -8 7 -7 6 2 13 -2 16 -8 2 -7 -6 -11 -19 -10 -28 1 -46 25
-27 37 16 9 32 1 23 -12z m-44 1 c0 -5 -5 -10 -11 -10 -5 0 -7 5 -4 10 3 6 8
10 11 10 2 0 4 -4 4 -10z m114 -45 c3 -10 -1 -15 -14 -15 -20 0 -33 13 -23 24
11 11 31 6 37 -9z m-5622 -27 c-7 -7 -12 -8 -12 -2 0 14 12 26 19 19 2 -3 -1
-11 -7 -17z m5598 -18 c0 -10 7 -23 16 -31 13 -10 17 -10 24 1 5 8 6 18 3 23
-3 5 -9 3 -14 -4 -5 -8 -9 -9 -9 -4 0 30 17 33 34 5 15 -26 16 -37 3 -27 -2 1
-11 -4 -20 -11 -20 -17 -57 -7 -57 16 0 11 -3 13 -11 5 -8 -8 -6 -18 5 -35 16
-25 16 -25 -11 -24 -23 1 -28 6 -30 29 -1 15 2 27 6 27 5 0 14 13 21 29 13 32
40 32 40 1z m-223 -12 c-3 -7 -5 -2 -5 12 0 14 2 19 5 13 2 -7 2 -19 0 -25z
m-5110 0 c-3 -8 -6 -5 -6 6 -1 11 2 17 5 13 3 -3 4 -12 1 -19z m-279 -48 c29
0 52 -4 52 -10 0 -5 -20 -10 -44 -10 -31 0 -46 -5 -50 -16 -6 -17 -27 -9 -25
9 3 24 -1 37 -12 37 -5 0 -7 -5 -3 -12 5 -7 3 -8 -6 -3 -10 6 -12 4 -7 -9 4
-10 2 -26 -3 -37 -11 -20 -30 -26 -30 -8 0 5 5 7 10 4 10 -6 14 7 11 32 -1 7
3 22 9 34 11 19 13 19 29 5 11 -10 36 -16 69 -16z m5377 -20 c-3 -5 -1 -10 4
-10 6 0 11 -7 11 -15 0 -8 -4 -15 -10 -15 -5 0 -10 -25 -10 -55 0 -43 -4 -56
-19 -64 -24 -14 -31 -5 -31 39 0 39 23 73 33 48 3 -7 6 5 6 28 1 22 4 44 8 47
10 10 15 8 8 -3z m-5432 -81 c18 -33 23 -74 8 -83 -5 -4 -7 3 -4 14 3 11 1 20
-5 20 -5 0 -13 11 -16 25 -4 14 -11 25 -16 25 -5 0 -7 7 -4 15 9 22 17 18 37
-16z m361 -206 c9 -29 15 -63 13 -75 -3 -17 -5 -14 -7 12 l-3 35 -7 -40 -7
-40 -2 48 c0 26 -5 47 -11 47 -5 0 -7 7 -4 15 4 9 1 51 -6 94 -7 46 -9 88 -4
102 7 18 10 2 14 -61 3 -47 14 -109 24 -137z m-397 167 c-3 -10 0 -21 7 -23 6
-2 7 -8 3 -13 -9 -10 -48 36 -41 48 3 4 12 8 21 8 10 0 14 -6 10 -20z m5873
-32 c0 -6 -9 1 -20 15 -11 14 -20 29 -20 34 1 11 40 -37 40 -49z m-49 -12
c-13 -32 -34 -35 -29 -3 2 12 9 21 16 20 6 -2 12 2 12 9 0 6 2 9 5 6 3 -3 1
-17 -4 -32z m-337 -14 c-1 -7 -2 -32 -2 -57 -3 -67 -19 -54 -20 16 -1 43 3 59
11 56 7 -2 12 -9 11 -15z m-2540 -23 c49 -39 22 -119 -41 -119 -34 0 -73 36
-73 67 0 29 42 73 68 73 11 0 31 -9 46 -21z m2483 -41 c-3 -7 -5 -2 -5 12 0
14 2 19 5 13 2 -7 2 -19 0 -25z m490 -50 c-3 -8 -6 -5 -6 6 -1 11 2 17 5 13 3
-3 4 -12 1 -19z m-437 -53 c-4 -27 -5 -56 -2 -64 3 -9 1 -12 -6 -7 -12 7 -10
79 3 109 12 28 13 16 5 -38z m332 36 c7 11 9 11 6 1 -5 -17 -23 -17 -24 0 -1
9 1 8 4 -1 3 -12 5 -12 14 0z m122 -5 c-6 -15 -24 -23 -24 -11 0 8 24 34 28
30 1 -1 0 -10 -4 -19z m-501 -43 c-4 -22 -2 -33 6 -33 9 0 10 -13 5 -45 -4
-28 -2 -45 4 -45 5 0 13 -21 15 -47 18 -157 19 -173 8 -173 -6 0 -11 -7 -11
-16 0 -8 5 -12 10 -9 15 9 12 -2 -7 -32 -16 -24 -16 -26 1 -38 14 -11 17 -27
16 -87 -1 -40 1 -81 5 -90 4 -10 5 -23 2 -30 -3 -8 -6 -5 -6 6 -1 10 -8 24
-15 30 -10 8 -16 34 -17 86 -1 41 -7 78 -12 82 -7 4 -7 19 1 45 10 35 7 227
-4 262 -2 7 -11 10 -20 7 -10 -4 -13 -2 -7 6 4 7 7 45 6 84 -1 52 2 71 12 71
9 0 12 -10 8 -34z m-5066 5 c-3 -8 -6 -5 -6 6 -1 11 2 17 5 13 3 -3 4 -12 1
-19z m5030 -30 c-3 -8 -6 -5 -6 6 -1 11 2 17 5 13 3 -3 4 -12 1 -19z m-5010
-117 c5 -85 -6 -141 -27 -141 -12 0 -14 129 -2 157 5 13 9 6 13 -27 5 -32 6
-25 4 25 -2 39 -6 79 -10 90 -6 19 -6 19 6 1 6 -10 14 -58 16 -105z m10 77
c-3 -8 -6 -5 -6 6 -1 11 2 17 5 13 3 -3 4 -12 1 -19z m5610 -32 c-2 -6 -11
-10 -20 -10 -12 1 -15 -5 -11 -30 2 -17 1 -25 -2 -17 -5 11 -8 11 -15 0 -6
-10 -9 -4 -9 18 0 17 5 33 11 35 6 2 12 16 12 31 l2 28 18 -22 c10 -12 16 -27
14 -33z m37 -72 c9 -24 8 -26 -14 -14 -11 6 -18 15 -15 21 9 14 22 11 29 -7z
m-630 -26 c7 -5 4 -8 -8 -8 -15 0 -17 -5 -12 -37 5 -32 4 -34 -4 -14 -6 13 -7
40 -4 60 4 20 9 29 12 21 3 -8 10 -18 16 -22z m-5688 -46 c-12 -11 -18 7 -10
30 l8 23 4 -23 c2 -13 1 -26 -2 -30z m-41 -9 c-4 -10 -7 -27 -7 -39 1 -11 -7
-30 -18 -42 -14 -14 -16 -22 -7 -25 7 -3 4 -6 -5 -6 -23 -1 -23 10 2 42 11 14
19 29 18 34 -3 11 12 53 19 53 3 0 2 -8 -2 -17z m718 -39 c12 -4 15 -19 11
-71 -4 -67 -9 -83 -25 -83 -5 0 -9 36 -9 80 0 44 2 80 4 80 2 0 11 -3 19 -6z
m4996 -11 c1 10 5 16 10 13 5 -3 9 -22 8 -42 -1 -20 -3 -31 -5 -24 -3 9 -6 9
-13 -1 -7 -11 -9 -9 -9 6 0 11 -3 31 -5 45 -5 22 -4 22 4 5 9 -18 10 -18 10
-2z m-5669 -104 c0 -28 -2 -30 -16 -18 -10 8 -12 15 -5 17 6 2 11 10 11 18 0
8 2 14 5 14 3 0 5 -14 5 -31z m6260 -23 c0 -8 -5 -18 -11 -22 -14 -8 -33 11
-25 25 10 16 36 13 36 -3z m-577 -34 c-4 -10 -8 -12 -11 -4 -2 7 -8 10 -13 6
-10 -6 -13 9 -3 19 12 11 33 -5 27 -21z m-5698 -2 c-2 -11 0 -20 6 -20 5 0 9
-9 9 -20 0 -11 -5 -20 -11 -20 -5 0 -7 -4 -4 -10 3 -5 -1 -10 -11 -10 -17 0
-17 4 1 80 5 21 4 20 9 20 3 0 3 -9 1 -20z m675 -1 c0 -14 -17 -10 -23 5 -4
10 -1 13 9 9 7 -3 14 -9 14 -14z m5776 -25 c-3 -8 1 -26 10 -40 9 -13 14 -24
10 -24 -17 0 -21 3 -18 13 5 17 -29 -16 -39 -38 -8 -17 -9 -16 -3 5 3 14 6 36
6 50 0 14 2 19 5 13 8 -22 20 -14 18 12 -2 14 1 25 7 25 6 0 7 -7 4 -16z
m-5786 -9 c0 -8 9 -15 20 -15 17 0 20 -7 20 -43 0 -36 -3 -43 -20 -44 -17 -2
-20 4 -20 38 0 21 -4 39 -10 39 -5 0 -10 9 -10 20 0 11 5 20 10 20 6 0 10 -7
10 -15z m5015 -6 c-4 -5 -3 -15 1 -21 6 -9 10 -5 15 12 5 17 7 4 8 -38 1 -39
5 -61 11 -57 13 8 13 -21 1 -44 -13 -23 -22 -211 -10 -211 10 0 13 -53 3 -63
-4 -3 -14 -2 -23 3 -14 7 -16 3 -14 -28 2 -34 1 -33 -7 8 -8 36 -7 47 5 56 17
13 20 29 3 18 -8 -5 -9 5 -4 37 4 24 9 83 11 130 2 47 5 90 7 95 4 17 -13 84
-22 84 -7 0 -7 13 -1 38 1 2 6 0 11 -3 6 -4 8 -11 5 -16z m-5696 -79 c10 -30
10 -31 -24 -28 -29 2 -32 4 -24 20 5 10 6 18 2 18 -9 0 19 20 29 20 3 0 11
-14 17 -30z m5688 -22 c-3 -7 -5 -2 -5 12 0 14 2 19 5 13 2 -7 2 -19 0 -25z
m-20 -30 c-3 -7 -5 -2 -5 12 0 14 2 19 5 13 2 -7 2 -19 0 -25z m-4970 -10 c-3
-7 -5 -2 -5 12 0 14 2 19 5 13 2 -7 2 -19 0 -25z m4990 -42 c-1 -36 -6 -61
-10 -56 -8 7 1 120 9 120 2 0 3 -29 1 -64z m91 -3 c0 -16 4 -63 8 -105 5 -57
3 -78 -5 -78 -6 0 -15 -10 -20 -22 -4 -12 -6 28 -5 93 2 74 0 105 -5 89 -7
-18 -9 -20 -10 -7 -1 22 16 57 28 57 4 0 8 -12 9 -27z m-5908 7 c0 -5 -5 -10
-11 -10 -5 0 -7 5 -4 10 3 6 8 10 11 10 2 0 4 -4 4 -10z m850 -9 c0 -5 -6 -11
-12 -14 -10 -4 -10 -7 0 -18 10 -11 12 -11 13 2 1 7 7 -13 14 -46 8 -37 10
-64 4 -69 -5 -6 -9 -15 -9 -20 0 -6 5 -4 10 4 8 12 10 11 10 -7 0 -16 -4 -21
-15 -17 -11 5 -15 21 -15 59 0 30 -4 57 -10 60 -5 3 -10 0 -10 -7 -1 -8 -4 -7
-10 4 -13 21 -1 78 16 78 8 0 14 -4 14 -9z m5716 -26 c7 -30 -2 -59 -16 -50
-13 8 -13 75 0 75 5 0 12 -11 16 -25z m-6566 -41 c0 -8 -5 -12 -10 -9 -6 4 -8
11 -5 16 9 14 15 11 15 -7z m5810 -20 c0 -8 -4 -14 -8 -14 -4 0 -8 9 -8 19 0
11 4 17 8 15 4 -3 8 -12 8 -20z m-5887 -11 c18 -38 16 -65 -6 -69 -13 -2 -16
2 -12 16 3 10 1 21 -5 25 -5 3 -10 1 -10 -6 0 -7 -2 -10 -5 -8 -4 5 16 69 22
69 1 0 9 -12 16 -27z m883 -10 c-11 -11 -19 6 -11 24 8 17 8 17 12 0 3 -10 2
-21 -1 -24z m103 -58 c-2 -46 0 -87 4 -91 4 -4 7 -46 7 -92 0 -47 -3 -82 -7
-79 -3 4 -6 33 -6 64 1 46 -1 52 -7 28 -6 -25 -8 -26 -9 -7 0 12 5 32 12 43
10 17 10 23 0 26 -7 3 -13 13 -13 23 0 10 -3 20 -7 23 -5 2 -2 2 5 1 9 -3 12
17 12 71 0 41 3 75 6 75 3 0 4 -38 3 -85z m5798 43 c-3 -7 -5 -2 -5 12 0 14 2
19 5 13 2 -7 2 -19 0 -25z m-914 -132 c1 -75 -1 -136 -5 -136 -5 0 -8 64 -8
142 0 78 3 139 6 136 3 -3 6 -67 7 -142z m872 134 c3 -5 1 -10 -4 -10 -6 0
-11 5 -11 10 0 6 2 10 4 10 3 0 8 -4 11 -10z m-5868 -67 c-3 -10 -5 -4 -5 12
0 17 2 24 5 18 2 -7 2 -21 0 -30z m34 -28 c5 4 9 1 9 -4 0 -6 -7 -11 -15 -11
-11 0 -15 10 -13 38 1 37 1 37 5 4 2 -18 9 -30 14 -27z m6 33 c-3 -8 -6 -5 -6
6 -1 11 2 17 5 13 3 -3 4 -12 1 -19z m-872 -5 c4 9 12 17 18 17 6 0 7 -3 4 -6
-3 -4 -2 -16 4 -26 8 -14 8 -23 0 -31 -7 -7 -12 -5 -17 6 -8 21 -24 22 -24 2
0 -8 -4 -15 -10 -15 -5 0 -10 6 -10 14 0 8 -3 23 -6 33 -5 15 -4 15 5 3 9 -13
11 -12 12 5 l0 20 9 -20 c7 -18 8 -19 15 -2z m-72 -18 c-3 -9 -8 -14 -10 -11
-3 3 -2 9 2 15 9 16 15 13 8 -4z m917 -82 c0 -55 26 -49 35 8 4 24 12 39 21
39 17 0 18 -14 2 -43 -13 -25 -14 -28 -16 -74 -2 -40 -22 -44 -23 -5 0 15 -3
22 -6 15 -3 -10 -9 -10 -24 0 -19 12 -27 75 -13 112 11 26 24 -3 24 -52z
m5920 5 c0 -32 -15 -19 -16 13 -1 20 2 26 7 17 5 -7 9 -21 9 -30z m-5853 -65
c-3 -10 -5 -4 -5 12 0 17 2 24 5 18 2 -7 2 -21 0 -30z m5917 -38 c7 -18 6 -18
-13 2 -12 12 -21 30 -21 40 0 16 1 15 13 -2 8 -11 17 -29 21 -40z m-5909 -12
c-13 -84 -14 -113 -6 -113 6 0 12 17 14 38 3 36 4 35 5 -8 2 -49 -5 -66 -28
-65 -11 0 -16 17 -21 70 -6 77 -4 85 17 85 8 0 14 5 14 10 0 6 2 10 5 10 2 0
3 -12 0 -27z m5847 -90 c3 -38 1 -54 -9 -57 -8 -3 -11 -2 -8 3 3 5 1 12 -5 16
-11 7 -13 48 -3 96 5 27 7 29 13 13 4 -10 10 -42 12 -71z m64 52 c-3 -9 -12
-13 -18 -10 -7 4 -5 0 5 -8 18 -15 18 -16 0 -36 -26 -31 -34 -26 -31 22 2 34
6 41 21 39 9 -2 17 3 17 9 0 7 3 10 6 6 4 -3 4 -13 0 -22z m-5869 -117 c-2
-24 -4 -7 -4 37 0 44 2 63 4 43 2 -21 2 -57 0 -80z m5867 28 c-3 -14 -11 -26
-16 -26 -7 0 -9 -28 -6 -76 4 -60 2 -77 -9 -81 -8 -3 -19 0 -23 7 -5 9 -9 9
-14 1 -22 -35 -36 64 -17 113 7 19 8 19 13 -2 4 -12 2 -20 -3 -16 -5 3 -9 -18
-9 -46 0 -46 2 -50 15 -36 8 8 15 22 15 31 0 9 5 13 11 9 8 -4 9 1 3 17 -12
37 -6 67 16 89 11 11 20 28 20 37 0 9 2 14 5 11 4 -3 3 -17 -1 -32z m-5984 5
c0 -6 -4 -13 -10 -16 -5 -3 -10 1 -10 9 0 9 5 16 10 16 6 0 10 -4 10 -9z m96
-68 c-5 -35 -4 -44 4 -33 7 11 8 6 3 -20 -7 -42 -21 -80 -22 -62 -1 7 -5 11
-10 7 -5 -3 -9 10 -8 30 1 19 5 35 10 35 4 0 7 13 7 29 0 16 3 36 6 45 12 31
16 16 10 -31z m-51 27 c-3 -5 -6 -42 -7 -82 -1 -53 -3 -65 -8 -43 l-8 30 -2
-30 c-1 -26 -3 -27 -9 -10 l-8 20 -6 -20 c-4 -11 -4 -2 -2 20 3 22 5 58 5 80
0 36 3 41 26 43 14 1 22 -2 19 -8z m22 -22 c-3 -7 -5 -2 -5 12 0 14 2 19 5 13
2 -7 2 -19 0 -25z m5960 -40 c-3 -7 -5 -2 -5 12 0 14 2 19 5 13 2 -7 2 -19 0
-25z m-5879 -428 l-1 -75 -7 95 c-4 52 -10 172 -13 265 l-6 170 14 -190 c7
-104 13 -224 13 -265z m-161 408 c-3 -7 -5 -2 -5 12 0 14 2 19 5 13 2 -7 2
-19 0 -25z m4949 24 c-3 -5 -8 -89 -11 -187 -3 -98 -7 -181 -10 -183 -7 -7 -6
78 2 241 3 76 10 137 15 137 5 0 7 -4 4 -8z m-5961 -52 c-5 -22 -3 -32 9 -36
9 -3 16 -14 16 -24 0 -10 7 -23 15 -30 19 -15 21 -84 3 -77 -7 2 -14 17 -14
33 -2 49 -4 54 -15 54 -19 0 -5 -161 15 -172 18 -10 23 -98 6 -98 -5 0 -10 7
-10 15 0 8 -4 15 -9 15 -4 0 -15 17 -24 38 l-15 37 -2 -30 c-1 -29 -2 -29 -11
-6 -6 15 -5 37 2 63 12 45 18 153 8 136 -10 -16 -21 46 -13 76 4 18 11 25 20
22 8 -3 14 -1 14 4 0 6 3 10 6 10 3 0 3 -14 -1 -30z m7055 5 l3 30 6 -35 c7
-38 -7 -120 -21 -120 -12 0 -10 24 3 37 12 12 3 53 -12 53 -5 0 -9 -9 -9 -20
0 -17 -2 -19 -14 -8 -10 9 -11 15 -2 20 6 4 7 8 1 8 -5 0 -2 5 8 11 9 5 18 20
18 32 1 17 3 15 9 -8 l8 -30 2 30z m-7010 -36 c0 -6 -4 -7 -10 -4 -5 3 -10 11
-10 16 0 6 5 7 10 4 6 -3 10 -11 10 -16z m1085 -36 c-2 -32 -10 -94 -18 -138
l-15 -80 6 119 c4 89 2 117 -6 112 -7 -4 -12 -2 -12 4 0 7 7 9 16 6 11 -4 18
1 21 14 9 35 12 22 8 -37z m-1169 -79 c-6 -21 -9 -24 -22 -13 -13 10 -14 5
-12 -36 2 -32 -1 -50 -9 -52 -8 -3 -13 5 -13 21 0 14 4 26 9 26 5 0 7 9 4 20
-3 11 0 27 7 35 6 8 9 23 5 34 -3 10 -3 32 1 48 7 28 7 28 22 -15 8 -24 11
-54 8 -68z m6011 49 c-3 -10 -5 -2 -5 17 0 19 2 27 5 18 2 -10 2 -26 0 -35z
m1110 -20 c-3 -10 -5 -4 -5 12 0 17 2 24 5 18 2 -7 2 -21 0 -30z m-5990 5 c-3
-8 -6 -5 -6 6 -1 11 2 17 5 13 3 -3 4 -12 1 -19z m3 -58 c0 -20 -5 -30 -15
-30 -18 0 -20 26 -2 45 17 19 17 19 17 -15z m-1139 -37 c-12 -20 -14 -14 -5
12 4 9 9 14 11 11 3 -2 0 -13 -6 -23z m6011 -28 c-2 -19 -6 -35 -8 -35 -2 0
-4 16 -4 35 0 19 4 35 8 35 4 0 6 -16 4 -35z m-4835 -32 c-3 -10 -5 -2 -5 17
0 19 2 27 5 18 2 -10 2 -26 0 -35z m5893 -23 c0 -5 5 -10 11 -10 5 0 7 5 4 10
-3 6 -1 10 5 10 7 0 9 -7 6 -16 -3 -9 -6 -20 -6 -25 0 -18 -15 -9 -27 16 -6
14 -7 25 -2 25 5 0 9 -4 9 -10z m-1051 -116 c1 -30 -4 -44 -15 -48 -11 -4 -15
-2 -11 8 3 8 8 32 12 53 4 30 3 34 -5 18 -9 -18 -10 -17 -5 5 2 14 5 32 6 40
2 28 17 -35 18 -76z m-39 -25 c0 -94 -2 -131 -19 -369 -5 -69 -13 -196 -17
-283 -4 -87 -9 -155 -12 -152 -3 2 6 207 18 455 13 247 25 448 27 447 1 -2 3
-46 3 -98z m-4843 39 c-3 -7 -5 -2 -5 12 0 14 2 19 5 13 2 -7 2 -19 0 -25z
m5840 10 c-3 -8 -6 -5 -6 6 -1 11 2 17 5 13 3 -3 4 -12 1 -19z m-6884 -89 c-5
-5 -7 7 -4 29 5 34 6 35 9 8 2 -16 0 -32 -5 -37z m1146 -239 c8 -138 11 -254
7 -257 -6 -6 -10 22 -6 42 2 14 -20 404 -25 438 -3 15 -1 27 3 27 5 0 14 -113
21 -250z m4764 130 c-3 -30 -1 -55 5 -63 6 -7 8 -24 5 -37 l-6 -24 -10 25 c-9
24 -10 126 -1 141 11 17 13 6 7 -42z m964 18 c-3 -8 -6 -5 -6 6 -1 11 2 17 5
13 3 -3 4 -12 1 -19z m-50 -56 c-8 -9 -17 -26 -20 -37 -3 -11 -4 -4 -3 16 1
26 6 35 20 37 16 1 17 -1 3 -16z m21 -19 c-20 -24 -32 -54 -29 -75 1 -10 -3
-18 -9 -18 -6 0 -9 4 -5 9 7 12 -9 22 -40 25 -14 2 -22 -1 -19 -8 3 -7 -5 -12
-16 -12 -14 0 -20 7 -20 23 0 26 -1 25 58 14 42 -8 43 -8 57 25 8 19 19 34 26
34 8 0 7 -5 -3 -17z m-5731 -25 c-3 -7 -5 -2 -5 12 0 14 2 19 5 13 2 -7 2 -19
0 -25z m5735 -10 c-7 -7 -12 -8 -12 -2 0 14 12 26 19 19 2 -3 -1 -11 -7 -17z
m-5725 -45 c-3 -10 -5 -4 -5 12 0 17 2 24 5 18 2 -7 2 -21 0 -30z m-1077 7 c0
-5 -4 -10 -9 -10 -5 0 -18 -3 -28 -6 -16 -5 -16 -4 1 10 23 18 36 20 36 6z
m6730 -30 c-6 -11 -14 -20 -18 -21 -4 0 -17 -2 -29 -5 -16 -3 -21 0 -17 10 3
8 13 12 26 8 14 -3 19 -1 14 6 -3 6 2 13 11 15 10 3 19 5 21 6 1 0 -2 -8 -8
-19z m-861 -69 c1 -61 -5 -48 -12 24 -3 36 -2 52 3 40 5 -11 9 -40 9 -64z
m-5749 22 c0 -7 -7 -13 -15 -13 -16 0 -19 9 -9 35 5 13 8 14 15 3 5 -7 9 -19
9 -25z m5717 -5 c-3 -7 -5 -2 -5 12 0 14 2 19 5 13 2 -7 2 -19 0 -25z m873 7
c0 -2 -9 -3 -19 -2 -11 0 -18 5 -15 9 4 6 34 0 34 -7z m-6575 -61 c16 21 48
15 39 -9 -3 -8 -10 -12 -15 -9 -8 5 -13 -10 -10 -30 1 -5 -5 -6 -14 -3 -10 4
-15 1 -15 -11 -1 -15 -2 -15 -15 2 -10 13 -12 23 -6 29 6 6 5 15 -4 23 -18 18
-29 18 -21 -1 3 -8 1 -15 -4 -15 -14 0 -13 23 1 37 9 9 16 6 30 -10 18 -21 19
-21 34 -3z m5723 -34 c4 0 8 -33 9 -73 l1 -72 -8 55 c-11 73 -18 141 -13 113
2 -13 7 -23 11 -23z m667 29 c-4 -5 3 -13 14 -17 17 -6 18 -9 6 -25 -7 -10
-18 -16 -25 -15 -7 2 -15 -3 -18 -11 -3 -10 0 -12 12 -8 14 6 15 3 6 -14 -6
-11 -15 -17 -21 -13 -5 3 -17 0 -25 -7 -12 -10 -18 -9 -30 4 -8 9 -9 13 -3 8
14 -11 41 -3 33 10 -3 5 3 6 13 3 16 -5 16 -4 -1 10 -25 20 -29 20 -51 -4 -14
-15 -15 -23 -6 -34 9 -10 9 -16 1 -21 -6 -4 -9 -12 -7 -18 2 -7 -9 -18 -25
-24 -16 -7 -27 -17 -23 -22 3 -6 -4 -15 -16 -21 -12 -7 -19 -8 -15 -2 3 5 0
12 -8 15 -9 4 -12 0 -9 -13 3 -12 -3 -24 -19 -33 -26 -17 -82 -34 -60 -19 9 6
3 9 -19 9 -31 0 -31 0 -9 -17 l21 -16 -25 -14 c-29 -15 -45 -8 -28 13 8 10 10
52 2 52 -1 0 -3 10 -6 22 -4 22 21 40 31 22 4 -5 10 -7 14 -5 4 3 12 -4 19
-14 10 -17 8 -18 -23 -16 -19 2 -32 0 -30 -4 7 -11 64 -10 71 1 4 6 11 5 20
-2 11 -9 18 -9 26 -1 9 9 9 12 0 12 -10 0 -10 5 -1 21 10 20 9 21 -13 16 -29
-8 -42 1 -28 19 11 13 50 8 50 -7 0 -5 7 -9 15 -9 8 0 15 -4 15 -10 0 -5 5
-10 11 -10 5 0 7 4 4 10 -14 23 -14 49 1 43 9 -3 14 2 14 16 0 12 -4 21 -10
21 -23 0 -7 33 35 75 41 41 75 58 75 36 0 -5 8 -11 18 -13 15 -4 18 -1 14 20
-3 17 -1 23 7 18 6 -4 9 -12 6 -17z m70 3 c0 -18 -20 -15 -23 4 -3 10 1 15 10
12 7 -3 13 -10 13 -16z m-5513 -5 c-6 -7 -9 -24 -6 -38 4 -24 4 -24 -7 -2 -13
24 -6 53 12 53 8 0 8 -4 1 -13z m5288 3 c0 -5 -4 -10 -10 -10 -5 0 -10 5 -10
10 0 6 5 10 10 10 6 0 10 -4 10 -10z m253 -3 c3 -7 -3 -18 -13 -25 -16 -10
-16 -8 -6 14 13 28 12 28 19 11z m-786 -89 c-3 -7 -5 -2 -5 12 0 14 2 19 5 13
2 -7 2 -19 0 -25z m-4749 -20 c8 -28 7 -38 -1 -38 -7 0 -13 18 -15 42 -3 49 2
48 16 -4z m4754 -18 c5 19 6 17 5 -10 -1 -71 3 -96 13 -80 12 18 12 3 0 -25
-9 -23 -17 -10 -22 40 -2 17 -4 -18 -4 -77 -1 -67 2 -108 9 -108 6 0 7 16 4
40 -3 22 -1 40 4 40 11 0 12 -70 0 -88 -6 -10 -10 -10 -20 2 -8 10 -11 56 -10
153 2 76 6 127 9 113 l7 -25 5 25z m622 -17 c-9 -7 -21 -10 -26 -7 -14 9 -1
20 22 20 20 0 20 -1 4 -13z m-214 -9 c0 -2 -9 -4 -21 -4 -11 0 -18 4 -14 10 5
8 35 3 35 -6z m-5160 -25 c0 -11 -4 -17 -10 -14 -5 3 -10 13 -10 21 0 8 5 14
10 14 6 0 10 -9 10 -21z m-787 -23 c4 -10 1 -13 -9 -9 -15 6 -19 23 -5 23 5 0
11 -7 14 -14z m126 -83 c-6 -7 -15 -10 -20 -7 -13 8 -3 21 15 21 12 0 13 -4 5
-14z m41 -22 c0 -5 8 -11 18 -13 9 -2 13 -6 7 -9 -5 -4 -23 2 -40 12 -28 17
-28 19 -7 19 12 0 22 -4 22 -9z m283 3 c3 -3 3 -12 0 -19 -5 -14 -40 -14 -85
1 -22 7 -22 7 -3 15 24 9 79 11 88 3z m7 -84 c0 -18 -2 -19 -20 -8 -11 7 -20
16 -20 20 0 5 9 8 20 8 13 0 20 -7 20 -20z m-13 -29 c6 -9 8 -17 3 -19 -4 -2
-6 -12 -3 -22 7 -26 2 -25 -55 5 -34 18 -41 25 -25 25 12 0 25 -4 28 -10 3 -5
12 -10 18 -10 7 0 6 4 -3 10 -8 5 -11 12 -7 17 5 4 12 1 17 -7 5 -8 12 -11 17
-7 12 13 -20 28 -47 22 -14 -2 -19 -2 -11 2 11 5 11 7 0 15 -9 6 -2 7 21 2 19
-4 40 -14 47 -23z m5258 -3 c-9 -6 -25 -8 -35 -5 -11 3 -21 -1 -24 -9 -3 -8
-13 -14 -23 -14 -15 0 -14 4 7 19 13 11 28 17 32 15 4 -3 16 -1 25 5 10 5 22
7 27 4 5 -3 1 -10 -9 -15z m-182 -3 c-3 -9 -8 -14 -10 -11 -3 3 -2 9 2 15 9
16 15 13 8 -4z m-5003 -49 c0 -16 -37 -28 -46 -15 -3 5 3 9 13 9 15 0 16 2 3
10 -12 8 -11 10 8 10 12 0 22 -6 22 -14z"/>
<path d="M5490 4176 c0 -2 7 -7 16 -10 8 -3 12 -2 9 4 -6 10 -25 14 -25 6z"/>
<path d="M5607 4093 c-3 -5 6 -9 19 -9 13 -1 21 2 18 7 -6 11 -31 12 -37 2z"/>
<path d="M2412 4090 c0 -14 2 -19 5 -12 2 6 2 18 0 25 -3 6 -5 1 -5 -13z"/>
<path d="M2964 3999 c-9 -15 -2 -18 20 -9 17 6 18 7 3 13 -9 3 -19 2 -23 -4z"/>
<path d="M1680 3980 c0 -5 5 -10 10 -10 6 0 10 5 10 10 0 6 -4 10 -10 10 -5 0
-10 -4 -10 -10z"/>
<path d="M4250 3530 c-13 -8 -12 -10 3 -10 9 0 17 5 17 10 0 12 -1 12 -20 0z"/>
<path d="M6406 3133 c-11 -11 -6 -23 9 -23 8 0 15 4 15 9 0 13 -16 22 -24 14z"/>
<path d="M6183 2981 c1 -16 5 -27 10 -24 10 6 9 53 -3 53 -5 0 -8 -13 -7 -29z"/>
<path d="M6221 2494 c0 -11 3 -14 6 -6 3 7 2 16 -1 19 -3 4 -6 -2 -5 -13z"/>
<path d="M6741 2664 c0 -11 3 -14 6 -6 3 7 2 16 -1 19 -3 4 -6 -2 -5 -13z"/>
<path d="M1161 2204 c0 -11 3 -14 6 -6 3 7 2 16 -1 19 -3 4 -6 -2 -5 -13z"/>
<path d="M7086 1375 c4 -8 8 -15 10 -15 2 0 4 7 4 15 0 8 -4 15 -10 15 -5 0
-7 -7 -4 -15z"/>
<path d="M1221 1414 c0 -11 3 -14 6 -6 3 7 2 16 -1 19 -3 4 -6 -2 -5 -13z"/>
<path d="M1232 1290 c0 -14 2 -19 5 -12 2 6 2 18 0 25 -3 6 -5 1 -5 -13z"/>
<path d="M51 1304 c0 -11 3 -14 6 -6 3 7 2 16 -1 19 -3 4 -6 -2 -5 -13z"/>
<path d="M61 1254 c0 -11 3 -14 6 -6 3 7 2 16 -1 19 -3 4 -6 -2 -5 -13z"/>
<path d="M6595 380 c-3 -5 -2 -10 4 -10 5 0 13 5 16 10 3 6 2 10 -4 10 -5 0
-13 -4 -16 -10z"/>
<path d="M6405 240 c-3 -6 1 -7 9 -4 18 7 21 14 7 14 -6 0 -13 -4 -16 -10z"/>
<path d="M935 80 c3 -5 8 -10 11 -10 2 0 4 5 4 10 0 6 -5 10 -11 10 -5 0 -7
-4 -4 -10z"/>
<path d="M4920 4420 c-8 -5 -10 -10 -5 -10 6 0 17 5 25 10 8 5 11 10 5 10 -5
0 -17 -5 -25 -10z"/>
<path d="M2386 4369 c4 -7 0 -9 -12 -5 -11 3 -26 1 -34 -4 -11 -7 -6 -9 19 -7
31 2 59 27 31 27 -6 0 -8 -5 -4 -11z"/>
<path d="M2275 4335 c-32 -14 -24 -19 10 -6 11 5 25 5 30 1 6 -4 21 -3 35 1
23 6 23 7 3 8 -12 1 -27 3 -35 6 -7 2 -26 -2 -43 -10z"/>
<path d="M5045 4330 c-3 -6 1 -7 9 -4 18 7 21 14 7 14 -6 0 -13 -4 -16 -10z"/>
<path d="M5335 4240 c3 -5 11 -10 16 -10 6 0 7 5 4 10 -3 6 -11 10 -16 10 -6
0 -7 -4 -4 -10z"/>
<path d="M6252 3580 c-9 -15 -10 -26 -3 -38 9 -14 11 -14 12 -2 1 8 0 22 -1
29 -1 13 1 13 15 1 11 -9 13 -16 6 -18 -6 -2 -11 -11 -11 -20 1 -15 3 -14 15
2 8 11 15 15 15 9 0 -14 -25 -34 -33 -26 -4 3 -7 1 -7 -5 0 -7 9 -12 20 -12
11 0 20 7 20 16 0 8 5 12 11 8 13 -8 -1 19 -28 54 -18 22 -18 22 -31 2z"/>
<path d="M895 3350 c-3 -6 1 -13 10 -16 19 -8 30 0 20 15 -8 14 -22 14 -30 1z"/>
<path d="M6300 3335 c0 -8 5 -15 10 -15 6 0 10 7 10 15 0 8 -4 15 -10 15 -5 0
-10 -7 -10 -15z"/>
<path d="M842 3308 c-11 -17 -18 -37 -15 -45 6 -16 23 -18 23 -2 0 5 6 7 13 4
6 -4 4 0 -6 8 -18 15 -18 16 2 36 23 23 26 31 12 31 -5 0 -18 -14 -29 -32z"/>
<path d="M6177 3263 c-11 -10 -8 -73 3 -73 6 0 10 18 10 40 0 41 -2 45 -13 33z"/>
<path d="M660 2990 c-17 -33 -18 -40 -6 -40 10 0 13 6 9 17 -4 11 -3 14 5 9
12 -7 16 5 13 33 -2 7 2 10 8 6 6 -3 11 -1 11 4 0 24 -21 9 -40 -29z"/>
<path d="M626 2923 c-6 -14 -5 -15 5 -6 7 7 10 15 7 18 -3 3 -9 -2 -12 -12z"/>
<path d="M6646 2927 c3 -10 9 -15 12 -12 3 3 0 11 -7 18 -10 9 -11 8 -5 -6z"/>
<path d="M542 2755 c-7 -15 -9 -31 -6 -37 4 -6 3 -8 -3 -5 -5 3 -17 -10 -26
-29 -19 -38 -23 -59 -6 -31 6 9 14 15 19 12 5 -3 12 4 15 16 6 16 9 18 15 8 5
-7 6 6 4 32 -4 33 -3 40 5 29 12 -17 15 -1 3 18 -6 9 -12 5 -20 -13z"/>
<path d="M6807 2527 c-32 -40 -37 -112 -7 -112 10 0 14 8 12 22 -2 12 4 36 13
53 21 41 8 69 -18 37z m23 -7 c0 -5 -5 -10 -11 -10 -5 0 -7 5 -4 10 3 6 8 10
11 10 2 0 4 -4 4 -10z"/>
<path d="M6833 2478 c-16 -32 -13 -90 3 -84 8 3 11 0 7 -10 -4 -11 0 -15 13
-13 10 2 25 0 32 -4 18 -12 14 4 -5 20 -10 8 -12 12 -5 8 16 -8 16 -6 -11 54
-22 50 -23 51 -34 29z m8 -31 c-8 -8 -11 -7 -11 4 0 20 13 34 18 19 3 -7 -1
-17 -7 -23z m16 -29 c-3 -8 -6 -5 -6 6 -1 11 2 17 5 13 3 -3 4 -12 1 -19z"/>
<path d="M276 2055 c-8 -21 8 -62 18 -46 5 7 4 17 -2 23 -6 6 -8 17 -5 24 3 8
3 14 0 14 -3 0 -7 -7 -11 -15z"/>
<path d="M7051 1854 c0 -11 3 -14 6 -6 3 7 2 16 -1 19 -3 4 -6 -2 -5 -13z"/>
<path d="M150 1771 c0 -6 4 -13 10 -16 6 -3 7 1 4 9 -7 18 -14 21 -14 7z"/>
<path d="M130 1614 c0 -5 7 -18 15 -28 8 -11 15 -16 15 -10 0 5 -7 18 -15 28
-8 11 -15 16 -15 10z"/>
<path d="M108 1583 c-10 -3 -18 -10 -18 -16 0 -7 -3 -23 -5 -37 -3 -16 0 -12
9 10 12 29 15 31 15 12 1 -13 5 -20 11 -17 6 3 10 1 10 -4 0 -6 5 -11 10 -11
6 0 10 9 10 21 0 13 -4 18 -12 13 -8 -5 -9 -2 -5 9 7 19 -1 25 -25 20z"/>
<path d="M42 1005 c0 -16 2 -22 5 -12 2 9 2 23 0 30 -3 6 -5 -1 -5 -18z"/>
<path d="M7156 1008 c-12 -17 -13 -24 -4 -29 9 -6 7 -10 -5 -15 -14 -5 -15 -9
-6 -21 10 -11 9 -13 -2 -11 -10 2 -15 -8 -17 -32 -2 -24 0 -31 6 -21 5 7 7 23
5 35 -3 15 -2 17 5 8 6 -9 15 3 30 43 12 31 22 59 22 61 0 12 -21 1 -34 -18z"/>
<path d="M7067 857 c-11 -29 -9 -43 4 -30 6 6 9 19 7 29 -3 18 -4 18 -11 1z"/>
<path d="M1281 254 c0 -11 3 -14 6 -6 3 7 2 16 -1 19 -3 4 -6 -2 -5 -13z"/>
<path d="M6250 200 c0 -5 5 -10 10 -10 6 0 10 5 10 10 0 6 -4 10 -10 10 -5 0
-10 -4 -10 -10z"/>
<path d="M6365 200 c3 -5 8 -10 11 -10 2 0 4 5 4 10 0 6 -5 10 -11 10 -5 0 -7
-4 -4 -10z"/>
<path d="M6106 187 c3 -10 9 -15 12 -12 3 3 0 11 -7 18 -10 9 -11 8 -5 -6z"/>
<path d="M6145 161 c-3 -6 -14 -8 -25 -6 -12 2 -18 0 -15 -6 4 -5 -2 -9 -11
-9 -14 0 -15 -3 -6 -12 10 -10 14 -10 21 0 4 7 22 14 39 15 18 1 32 8 32 15 0
14 -26 16 -35 3z"/>
<path d="M6071 61 c-7 -5 -9 -11 -4 -14 5 -3 15 -2 22 2 7 5 9 11 4 14 -5 3
-15 2 -22 -2z"/>
<path d="M1960 33 l0 -28 1745 0 1745 0 0 28 0 27 -1745 0 -1745 0 0 -27z
m2618 0 c-476 -2 -1259 -2 -1740 0 -480 1 -90 2 867 2 957 0 1350 -1 873 -2z"/>
</g>
</svg>
